%TF.GenerationSoftware,KiCad,Pcbnew,(5.1.10)-1*%
%TF.CreationDate,2021-12-30T01:37:01+05:30*%
%TF.ProjectId,New,4e65772e-6b69-4636-9164-5f7063625858,Final*%
%TF.SameCoordinates,Original*%
%TF.FileFunction,Legend,Top*%
%TF.FilePolarity,Positive*%
%FSLAX46Y46*%
G04 Gerber Fmt 4.6, Leading zero omitted, Abs format (unit mm)*
G04 Created by KiCad (PCBNEW (5.1.10)-1) date 2021-12-30 01:37:01*
%MOMM*%
%LPD*%
G01*
G04 APERTURE LIST*
%ADD10C,0.150000*%
%ADD11C,0.120000*%
%ADD12C,1.440000*%
%ADD13C,2.600000*%
%ADD14R,2.600000X2.600000*%
%ADD15C,5.000000*%
%ADD16C,1.500000*%
%ADD17R,1.500000X1.500000*%
%ADD18C,2.000000*%
%ADD19O,1.400000X1.400000*%
%ADD20C,1.400000*%
%ADD21C,1.200000*%
%ADD22R,10.800000X9.400000*%
%ADD23R,1.100000X4.600000*%
%ADD24O,1.905000X2.000000*%
%ADD25R,1.905000X2.000000*%
%ADD26O,1.800000X1.800000*%
%ADD27R,1.800000X1.800000*%
%ADD28C,0.100000*%
%ADD29C,1.600000*%
G04 APERTURE END LIST*
D10*
X75986190Y-106656190D02*
X75938571Y-106608571D01*
X75843333Y-106560952D01*
X75748095Y-106560952D01*
X75652857Y-106608571D01*
X75605238Y-106656190D01*
X75557619Y-106751428D01*
X75557619Y-106846666D01*
X75605238Y-106941904D01*
X75652857Y-106989523D01*
X75748095Y-107037142D01*
X75843333Y-107037142D01*
X75938571Y-106989523D01*
X75986190Y-106941904D01*
X75986190Y-106560952D02*
X75986190Y-106941904D01*
X76033809Y-106989523D01*
X76081428Y-106989523D01*
X76176666Y-106941904D01*
X76224285Y-106846666D01*
X76224285Y-106608571D01*
X76129047Y-106465714D01*
X75986190Y-106370476D01*
X75795714Y-106322857D01*
X75605238Y-106370476D01*
X75462380Y-106465714D01*
X75367142Y-106608571D01*
X75319523Y-106799047D01*
X75367142Y-106989523D01*
X75462380Y-107132380D01*
X75605238Y-107227619D01*
X75795714Y-107275238D01*
X75986190Y-107227619D01*
X76129047Y-107132380D01*
X77081428Y-106465714D02*
X77081428Y-107275238D01*
X77033809Y-107370476D01*
X76986190Y-107418095D01*
X76890952Y-107465714D01*
X76748095Y-107465714D01*
X76652857Y-107418095D01*
X77081428Y-107084761D02*
X76986190Y-107132380D01*
X76795714Y-107132380D01*
X76700476Y-107084761D01*
X76652857Y-107037142D01*
X76605238Y-106941904D01*
X76605238Y-106656190D01*
X76652857Y-106560952D01*
X76700476Y-106513333D01*
X76795714Y-106465714D01*
X76986190Y-106465714D01*
X77081428Y-106513333D01*
X77986190Y-106465714D02*
X77986190Y-107132380D01*
X77557619Y-106465714D02*
X77557619Y-106989523D01*
X77605238Y-107084761D01*
X77700476Y-107132380D01*
X77843333Y-107132380D01*
X77938571Y-107084761D01*
X77986190Y-107037142D01*
X78462380Y-107132380D02*
X78462380Y-106465714D01*
X78462380Y-106656190D02*
X78510000Y-106560952D01*
X78557619Y-106513333D01*
X78652857Y-106465714D01*
X78748095Y-106465714D01*
X79081428Y-106465714D02*
X79081428Y-107322857D01*
X79033809Y-107418095D01*
X78938571Y-107465714D01*
X78890952Y-107465714D01*
X79081428Y-106132380D02*
X79033809Y-106180000D01*
X79081428Y-106227619D01*
X79129047Y-106180000D01*
X79081428Y-106132380D01*
X79081428Y-106227619D01*
X79462380Y-107132380D02*
X79986190Y-106465714D01*
X79462380Y-106465714D02*
X79986190Y-107132380D01*
X80224285Y-106465714D02*
X80605238Y-106465714D01*
X80367142Y-106132380D02*
X80367142Y-106989523D01*
X80414761Y-107084761D01*
X80510000Y-107132380D01*
X80605238Y-107132380D01*
X80938571Y-107037142D02*
X80986190Y-107084761D01*
X80938571Y-107132380D01*
X80890952Y-107084761D01*
X80938571Y-107037142D01*
X80938571Y-107132380D01*
X81414761Y-106465714D02*
X81414761Y-107465714D01*
X81414761Y-106513333D02*
X81509999Y-106465714D01*
X81700476Y-106465714D01*
X81795714Y-106513333D01*
X81843333Y-106560952D01*
X81890952Y-106656190D01*
X81890952Y-106941904D01*
X81843333Y-107037142D01*
X81795714Y-107084761D01*
X81700476Y-107132380D01*
X81509999Y-107132380D01*
X81414761Y-107084761D01*
X82319523Y-107132380D02*
X82319523Y-106132380D01*
X82319523Y-106513333D02*
X82414761Y-106465714D01*
X82605238Y-106465714D01*
X82700476Y-106513333D01*
X82748095Y-106560952D01*
X82795714Y-106656190D01*
X82795714Y-106941904D01*
X82748095Y-107037142D01*
X82700476Y-107084761D01*
X82605238Y-107132380D01*
X82414761Y-107132380D01*
X82319523Y-107084761D01*
X83176666Y-106227619D02*
X83224285Y-106180000D01*
X83319523Y-106132380D01*
X83557619Y-106132380D01*
X83652857Y-106180000D01*
X83700476Y-106227619D01*
X83748095Y-106322857D01*
X83748095Y-106418095D01*
X83700476Y-106560952D01*
X83129047Y-107132380D01*
X83748095Y-107132380D01*
X84605238Y-106132380D02*
X84414761Y-106132380D01*
X84319523Y-106180000D01*
X84271904Y-106227619D01*
X84176666Y-106370476D01*
X84129047Y-106560952D01*
X84129047Y-106941904D01*
X84176666Y-107037142D01*
X84224285Y-107084761D01*
X84319523Y-107132380D01*
X84509999Y-107132380D01*
X84605238Y-107084761D01*
X84652857Y-107037142D01*
X84700476Y-106941904D01*
X84700476Y-106703809D01*
X84652857Y-106608571D01*
X84605238Y-106560952D01*
X84509999Y-106513333D01*
X84319523Y-106513333D01*
X84224285Y-106560952D01*
X84176666Y-106608571D01*
X84129047Y-106703809D01*
X75700952Y-103925714D02*
X75700952Y-104735238D01*
X75653333Y-104830476D01*
X75605714Y-104878095D01*
X75510476Y-104925714D01*
X75367619Y-104925714D01*
X75272380Y-104878095D01*
X75700952Y-104544761D02*
X75605714Y-104592380D01*
X75415238Y-104592380D01*
X75320000Y-104544761D01*
X75272380Y-104497142D01*
X75224761Y-104401904D01*
X75224761Y-104116190D01*
X75272380Y-104020952D01*
X75320000Y-103973333D01*
X75415238Y-103925714D01*
X75605714Y-103925714D01*
X75700952Y-103973333D01*
X76177142Y-104592380D02*
X76177142Y-103925714D01*
X76177142Y-103592380D02*
X76129523Y-103640000D01*
X76177142Y-103687619D01*
X76224761Y-103640000D01*
X76177142Y-103592380D01*
X76177142Y-103687619D01*
X76510476Y-103925714D02*
X76891428Y-103925714D01*
X76653333Y-103592380D02*
X76653333Y-104449523D01*
X76700952Y-104544761D01*
X76796190Y-104592380D01*
X76891428Y-104592380D01*
X77224761Y-104592380D02*
X77224761Y-103592380D01*
X77653333Y-104592380D02*
X77653333Y-104068571D01*
X77605714Y-103973333D01*
X77510476Y-103925714D01*
X77367619Y-103925714D01*
X77272380Y-103973333D01*
X77224761Y-104020952D01*
X78558095Y-103925714D02*
X78558095Y-104592380D01*
X78129523Y-103925714D02*
X78129523Y-104449523D01*
X78177142Y-104544761D01*
X78272380Y-104592380D01*
X78415238Y-104592380D01*
X78510476Y-104544761D01*
X78558095Y-104497142D01*
X79034285Y-104592380D02*
X79034285Y-103592380D01*
X79034285Y-103973333D02*
X79129523Y-103925714D01*
X79320000Y-103925714D01*
X79415238Y-103973333D01*
X79462857Y-104020952D01*
X79510476Y-104116190D01*
X79510476Y-104401904D01*
X79462857Y-104497142D01*
X79415238Y-104544761D01*
X79320000Y-104592380D01*
X79129523Y-104592380D01*
X79034285Y-104544761D01*
X79939047Y-104497142D02*
X79986666Y-104544761D01*
X79939047Y-104592380D01*
X79891428Y-104544761D01*
X79939047Y-104497142D01*
X79939047Y-104592380D01*
X80843809Y-104544761D02*
X80748571Y-104592380D01*
X80558095Y-104592380D01*
X80462857Y-104544761D01*
X80415238Y-104497142D01*
X80367619Y-104401904D01*
X80367619Y-104116190D01*
X80415238Y-104020952D01*
X80462857Y-103973333D01*
X80558095Y-103925714D01*
X80748571Y-103925714D01*
X80843809Y-103973333D01*
X81415238Y-104592380D02*
X81320000Y-104544761D01*
X81272380Y-104497142D01*
X81224761Y-104401904D01*
X81224761Y-104116190D01*
X81272380Y-104020952D01*
X81320000Y-103973333D01*
X81415238Y-103925714D01*
X81558095Y-103925714D01*
X81653333Y-103973333D01*
X81700952Y-104020952D01*
X81748571Y-104116190D01*
X81748571Y-104401904D01*
X81700952Y-104497142D01*
X81653333Y-104544761D01*
X81558095Y-104592380D01*
X81415238Y-104592380D01*
X82177142Y-104592380D02*
X82177142Y-103925714D01*
X82177142Y-104020952D02*
X82224761Y-103973333D01*
X82320000Y-103925714D01*
X82462857Y-103925714D01*
X82558095Y-103973333D01*
X82605714Y-104068571D01*
X82605714Y-104592380D01*
X82605714Y-104068571D02*
X82653333Y-103973333D01*
X82748571Y-103925714D01*
X82891428Y-103925714D01*
X82986666Y-103973333D01*
X83034285Y-104068571D01*
X83034285Y-104592380D01*
X84224761Y-103544761D02*
X83367619Y-104830476D01*
X84462857Y-103592380D02*
X85129523Y-104592380D01*
X85129523Y-103592380D02*
X84462857Y-104592380D01*
X85415238Y-103592380D02*
X86081904Y-104592380D01*
X86081904Y-103592380D02*
X85415238Y-104592380D01*
X86986666Y-103640000D02*
X86891428Y-103592380D01*
X86748571Y-103592380D01*
X86605714Y-103640000D01*
X86510476Y-103735238D01*
X86462857Y-103830476D01*
X86415238Y-104020952D01*
X86415238Y-104163809D01*
X86462857Y-104354285D01*
X86510476Y-104449523D01*
X86605714Y-104544761D01*
X86748571Y-104592380D01*
X86843809Y-104592380D01*
X86986666Y-104544761D01*
X87034285Y-104497142D01*
X87034285Y-104163809D01*
X86843809Y-104163809D01*
X87891428Y-103925714D02*
X87891428Y-104592380D01*
X87462857Y-103925714D02*
X87462857Y-104449523D01*
X87510476Y-104544761D01*
X87605714Y-104592380D01*
X87748571Y-104592380D01*
X87843809Y-104544761D01*
X87891428Y-104497142D01*
X88367619Y-104592380D02*
X88367619Y-103925714D01*
X88367619Y-104116190D02*
X88415238Y-104020952D01*
X88462857Y-103973333D01*
X88558095Y-103925714D01*
X88653333Y-103925714D01*
X88986666Y-103925714D02*
X88986666Y-104782857D01*
X88939047Y-104878095D01*
X88843809Y-104925714D01*
X88796190Y-104925714D01*
X88986666Y-103592380D02*
X88939047Y-103640000D01*
X88986666Y-103687619D01*
X89034285Y-103640000D01*
X88986666Y-103592380D01*
X88986666Y-103687619D01*
X89605714Y-104592380D02*
X89510476Y-104544761D01*
X89462857Y-104497142D01*
X89415238Y-104401904D01*
X89415238Y-104116190D01*
X89462857Y-104020952D01*
X89510476Y-103973333D01*
X89605714Y-103925714D01*
X89748571Y-103925714D01*
X89843809Y-103973333D01*
X89891428Y-104020952D01*
X89939047Y-104116190D01*
X89939047Y-104401904D01*
X89891428Y-104497142D01*
X89843809Y-104544761D01*
X89748571Y-104592380D01*
X89605714Y-104592380D01*
X90224761Y-103925714D02*
X90605714Y-103925714D01*
X90367619Y-103592380D02*
X90367619Y-104449523D01*
X90415238Y-104544761D01*
X90510476Y-104592380D01*
X90605714Y-104592380D01*
X91129523Y-103592380D02*
X91224761Y-103592380D01*
X91320000Y-103640000D01*
X91367619Y-103687619D01*
X91415238Y-103782857D01*
X91462857Y-103973333D01*
X91462857Y-104211428D01*
X91415238Y-104401904D01*
X91367619Y-104497142D01*
X91320000Y-104544761D01*
X91224761Y-104592380D01*
X91129523Y-104592380D01*
X91034285Y-104544761D01*
X90986666Y-104497142D01*
X90939047Y-104401904D01*
X90891428Y-104211428D01*
X90891428Y-103973333D01*
X90939047Y-103782857D01*
X90986666Y-103687619D01*
X91034285Y-103640000D01*
X91129523Y-103592380D01*
X91796190Y-103592380D02*
X92462857Y-103592380D01*
X92034285Y-104592380D01*
X73977619Y-125182380D02*
X74310952Y-126182380D01*
X74644285Y-125182380D01*
X74977619Y-125801428D02*
X75739523Y-125801428D01*
X75358571Y-126182380D02*
X75358571Y-125420476D01*
X100838095Y-125230000D02*
X100742857Y-125182380D01*
X100600000Y-125182380D01*
X100457142Y-125230000D01*
X100361904Y-125325238D01*
X100314285Y-125420476D01*
X100266666Y-125610952D01*
X100266666Y-125753809D01*
X100314285Y-125944285D01*
X100361904Y-126039523D01*
X100457142Y-126134761D01*
X100600000Y-126182380D01*
X100695238Y-126182380D01*
X100838095Y-126134761D01*
X100885714Y-126087142D01*
X100885714Y-125753809D01*
X100695238Y-125753809D01*
X101314285Y-126182380D02*
X101314285Y-125182380D01*
X101885714Y-126182380D01*
X101885714Y-125182380D01*
X102361904Y-126182380D02*
X102361904Y-125182380D01*
X102600000Y-125182380D01*
X102742857Y-125230000D01*
X102838095Y-125325238D01*
X102885714Y-125420476D01*
X102933333Y-125610952D01*
X102933333Y-125753809D01*
X102885714Y-125944285D01*
X102838095Y-126039523D01*
X102742857Y-126134761D01*
X102600000Y-126182380D01*
X102361904Y-126182380D01*
X95567619Y-125182380D02*
X95900952Y-126182380D01*
X96234285Y-125182380D01*
X96567619Y-125801428D02*
X97329523Y-125801428D01*
X96948571Y-126182380D02*
X96948571Y-125420476D01*
X72223333Y-85749047D02*
X72223333Y-86225238D01*
X71937619Y-85653809D02*
X72937619Y-85987142D01*
X71937619Y-86320476D01*
X72032857Y-87225238D02*
X71985238Y-87177619D01*
X71937619Y-87034761D01*
X71937619Y-86939523D01*
X71985238Y-86796666D01*
X72080476Y-86701428D01*
X72175714Y-86653809D01*
X72366190Y-86606190D01*
X72509047Y-86606190D01*
X72699523Y-86653809D01*
X72794761Y-86701428D01*
X72890000Y-86796666D01*
X72937619Y-86939523D01*
X72937619Y-87034761D01*
X72890000Y-87177619D01*
X72842380Y-87225238D01*
X71937619Y-88415714D02*
X72937619Y-88415714D01*
X71937619Y-88891904D02*
X72937619Y-88891904D01*
X71937619Y-89463333D01*
X72937619Y-89463333D01*
X211328095Y-71890000D02*
X211232857Y-71842380D01*
X211090000Y-71842380D01*
X210947142Y-71890000D01*
X210851904Y-71985238D01*
X210804285Y-72080476D01*
X210756666Y-72270952D01*
X210756666Y-72413809D01*
X210804285Y-72604285D01*
X210851904Y-72699523D01*
X210947142Y-72794761D01*
X211090000Y-72842380D01*
X211185238Y-72842380D01*
X211328095Y-72794761D01*
X211375714Y-72747142D01*
X211375714Y-72413809D01*
X211185238Y-72413809D01*
X211804285Y-72842380D02*
X211804285Y-71842380D01*
X212375714Y-72842380D01*
X212375714Y-71842380D01*
X212851904Y-72842380D02*
X212851904Y-71842380D01*
X213090000Y-71842380D01*
X213232857Y-71890000D01*
X213328095Y-71985238D01*
X213375714Y-72080476D01*
X213423333Y-72270952D01*
X213423333Y-72413809D01*
X213375714Y-72604285D01*
X213328095Y-72699523D01*
X213232857Y-72794761D01*
X213090000Y-72842380D01*
X212851904Y-72842380D01*
D11*
%TO.C,RV1*%
X211580000Y-81475000D02*
X211580000Y-91245000D01*
X205240000Y-81475000D02*
X205240000Y-91245000D01*
X211580000Y-81475000D02*
X205240000Y-81475000D01*
X211580000Y-91245000D02*
X205240000Y-91245000D01*
%TO.C,J2*%
X91468805Y-119790253D02*
G75*
G02*
X90756000Y-119645000I-28805J1680253D01*
G01*
X89904574Y-118793042D02*
G75*
G02*
X89905000Y-117426000I1535426J683042D01*
G01*
X90756958Y-116574574D02*
G75*
G02*
X92124000Y-116575000I683042J-1535426D01*
G01*
X92975426Y-117426958D02*
G75*
G02*
X92975000Y-118794000I-1535426J-683042D01*
G01*
X92123318Y-119644756D02*
G75*
G02*
X91440000Y-119790000I-683318J1534756D01*
G01*
X98120000Y-118110000D02*
G75*
G03*
X98120000Y-118110000I-1680000J0D01*
G01*
X103120000Y-118110000D02*
G75*
G03*
X103120000Y-118110000I-1680000J0D01*
G01*
X88880000Y-122210000D02*
X104000000Y-122210000D01*
X88880000Y-120710000D02*
X104000000Y-120710000D01*
X88880000Y-115809000D02*
X104000000Y-115809000D01*
X88880000Y-112849000D02*
X104000000Y-112849000D01*
X88880000Y-122770000D02*
X104000000Y-122770000D01*
X88880000Y-112849000D02*
X88880000Y-122770000D01*
X104000000Y-112849000D02*
X104000000Y-122770000D01*
X97715000Y-117041000D02*
X97668000Y-117087000D01*
X95406000Y-119349000D02*
X95371000Y-119384000D01*
X97510000Y-116835000D02*
X97475000Y-116871000D01*
X95213000Y-119133000D02*
X95166000Y-119179000D01*
X102715000Y-117041000D02*
X102668000Y-117087000D01*
X100406000Y-119349000D02*
X100371000Y-119384000D01*
X102510000Y-116835000D02*
X102475000Y-116871000D01*
X100213000Y-119133000D02*
X100166000Y-119179000D01*
X88640000Y-122270000D02*
X88640000Y-123010000D01*
X88640000Y-123010000D02*
X89140000Y-123010000D01*
%TO.C,J1*%
X78329747Y-82578805D02*
G75*
G02*
X78475000Y-81866000I1680253J28805D01*
G01*
X79326958Y-81014574D02*
G75*
G02*
X80694000Y-81015000I683042J-1535426D01*
G01*
X81545426Y-81866958D02*
G75*
G02*
X81545000Y-83234000I-1535426J-683042D01*
G01*
X80693042Y-84085426D02*
G75*
G02*
X79326000Y-84085000I-683042J1535426D01*
G01*
X78475244Y-83233318D02*
G75*
G02*
X78330000Y-82550000I1534756J683318D01*
G01*
X81690000Y-87550000D02*
G75*
G03*
X81690000Y-87550000I-1680000J0D01*
G01*
X81690000Y-92550000D02*
G75*
G03*
X81690000Y-92550000I-1680000J0D01*
G01*
X75910000Y-79990000D02*
X75910000Y-95110000D01*
X77410000Y-79990000D02*
X77410000Y-95110000D01*
X82311000Y-79990000D02*
X82311000Y-95110000D01*
X85271000Y-79990000D02*
X85271000Y-95110000D01*
X75350000Y-79990000D02*
X75350000Y-95110000D01*
X85271000Y-79990000D02*
X75350000Y-79990000D01*
X85271000Y-95110000D02*
X75350000Y-95110000D01*
X81079000Y-88825000D02*
X81033000Y-88778000D01*
X78771000Y-86516000D02*
X78736000Y-86481000D01*
X81285000Y-88620000D02*
X81249000Y-88585000D01*
X78987000Y-86323000D02*
X78941000Y-86276000D01*
X81079000Y-93825000D02*
X81033000Y-93778000D01*
X78771000Y-91516000D02*
X78736000Y-91481000D01*
X81285000Y-93620000D02*
X81249000Y-93585000D01*
X78987000Y-91323000D02*
X78941000Y-91276000D01*
X75850000Y-79750000D02*
X75110000Y-79750000D01*
X75110000Y-79750000D02*
X75110000Y-80250000D01*
%TO.C,MES1*%
X127270000Y-123030000D02*
X129270000Y-123030000D01*
X159890000Y-103410000D02*
X109350000Y-103410000D01*
X159890000Y-122650000D02*
X159890000Y-103410000D01*
X109350000Y-122650000D02*
X159890000Y-122650000D01*
X109350000Y-122650000D02*
X109350000Y-103410000D01*
%TO.C,C4*%
X186980000Y-114300000D02*
G75*
G03*
X186980000Y-114300000I-9120000J0D01*
G01*
%TO.C,R3*%
X201930000Y-68250000D02*
X201930000Y-69200000D01*
X201930000Y-73990000D02*
X201930000Y-73040000D01*
X201010000Y-69200000D02*
X201010000Y-73040000D01*
X202850000Y-69200000D02*
X201010000Y-69200000D01*
X202850000Y-73040000D02*
X202850000Y-69200000D01*
X201010000Y-73040000D02*
X202850000Y-73040000D01*
%TO.C,C3*%
X178650000Y-88380000D02*
G75*
G03*
X178650000Y-88380000I-2120000J0D01*
G01*
%TO.C,R1*%
X159690000Y-85090000D02*
X160640000Y-85090000D01*
X165430000Y-85090000D02*
X164480000Y-85090000D01*
X160640000Y-86010000D02*
X164480000Y-86010000D01*
X160640000Y-84170000D02*
X160640000Y-86010000D01*
X164480000Y-84170000D02*
X160640000Y-84170000D01*
X164480000Y-86010000D02*
X164480000Y-84170000D01*
%TO.C,U2*%
X191175000Y-77330000D02*
X191175000Y-78430000D01*
X192125000Y-77330000D02*
X191175000Y-77330000D01*
X192125000Y-75830000D02*
X192125000Y-77330000D01*
X182675000Y-77330000D02*
X182675000Y-82455000D01*
X181725000Y-77330000D02*
X182675000Y-77330000D01*
X181725000Y-75830000D02*
X181725000Y-77330000D01*
%TO.C,U1*%
X154251000Y-75470000D02*
X154251000Y-76980000D01*
X150550000Y-75470000D02*
X150550000Y-76980000D01*
X147280000Y-76980000D02*
X157520000Y-76980000D01*
X157520000Y-75470000D02*
X157520000Y-80111000D01*
X147280000Y-75470000D02*
X147280000Y-80111000D01*
X147280000Y-80111000D02*
X157520000Y-80111000D01*
X147280000Y-75470000D02*
X157520000Y-75470000D01*
%TO.C,R2*%
X152070000Y-91440000D02*
X153020000Y-91440000D01*
X157810000Y-91440000D02*
X156860000Y-91440000D01*
X153020000Y-92360000D02*
X156860000Y-92360000D01*
X153020000Y-90520000D02*
X153020000Y-92360000D01*
X156860000Y-90520000D02*
X153020000Y-90520000D01*
X156860000Y-92360000D02*
X156860000Y-90520000D01*
%TO.C,L1*%
X205810000Y-113985000D02*
G75*
G03*
X205810000Y-113985000I-1340000J0D01*
G01*
X215090000Y-113985000D02*
G75*
G03*
X215090000Y-113985000I-10620000J0D01*
G01*
%TO.C,D2*%
X188630000Y-92910000D02*
X188630000Y-89970000D01*
X188390000Y-92910000D02*
X188390000Y-89970000D01*
X188510000Y-92910000D02*
X188510000Y-89970000D01*
X183970000Y-89970000D02*
X183970000Y-90300000D01*
X189410000Y-89970000D02*
X183970000Y-89970000D01*
X189410000Y-90300000D02*
X189410000Y-89970000D01*
X183970000Y-92910000D02*
X183970000Y-92580000D01*
X189410000Y-92910000D02*
X183970000Y-92910000D01*
X189410000Y-92580000D02*
X189410000Y-92910000D01*
%TO.C,D1*%
X101263200Y-76740556D02*
X91787969Y-86215786D01*
X91787969Y-86215786D02*
X91787969Y-89044214D01*
X91787969Y-89044214D02*
X101192489Y-98590155D01*
X101192489Y-98590155D02*
X112152644Y-87630000D01*
X112152644Y-87630000D02*
X101263200Y-76740556D01*
X103233910Y-87630000D02*
G75*
G03*
X103233910Y-87630000I-1899999J0D01*
G01*
%TO.C,C2*%
X146150000Y-92480000D02*
X143410000Y-92480000D01*
X146150000Y-85240000D02*
X143410000Y-85240000D01*
X143410000Y-85240000D02*
X143410000Y-92480000D01*
X146150000Y-85240000D02*
X146150000Y-92480000D01*
%TO.C,C1*%
X137390000Y-88840000D02*
G75*
G03*
X137390000Y-88840000I-9120000J0D01*
G01*
%TO.C,RV1*%
D10*
X213162380Y-86955238D02*
X212686190Y-87288571D01*
X213162380Y-87526666D02*
X212162380Y-87526666D01*
X212162380Y-87145714D01*
X212210000Y-87050476D01*
X212257619Y-87002857D01*
X212352857Y-86955238D01*
X212495714Y-86955238D01*
X212590952Y-87002857D01*
X212638571Y-87050476D01*
X212686190Y-87145714D01*
X212686190Y-87526666D01*
X212162380Y-86669523D02*
X213162380Y-86336190D01*
X212162380Y-86002857D01*
X213162380Y-85145714D02*
X213162380Y-85717142D01*
X213162380Y-85431428D02*
X212162380Y-85431428D01*
X212305238Y-85526666D01*
X212400476Y-85621904D01*
X212448095Y-85717142D01*
%TO.C,J2*%
X88566666Y-109942380D02*
X88566666Y-110656666D01*
X88519047Y-110799523D01*
X88423809Y-110894761D01*
X88280952Y-110942380D01*
X88185714Y-110942380D01*
X88995238Y-110037619D02*
X89042857Y-109990000D01*
X89138095Y-109942380D01*
X89376190Y-109942380D01*
X89471428Y-109990000D01*
X89519047Y-110037619D01*
X89566666Y-110132857D01*
X89566666Y-110228095D01*
X89519047Y-110370952D01*
X88947619Y-110942380D01*
X89566666Y-110942380D01*
%TO.C,J1*%
X75866666Y-78192380D02*
X75866666Y-78906666D01*
X75819047Y-79049523D01*
X75723809Y-79144761D01*
X75580952Y-79192380D01*
X75485714Y-79192380D01*
X76866666Y-79192380D02*
X76295238Y-79192380D01*
X76580952Y-79192380D02*
X76580952Y-78192380D01*
X76485714Y-78335238D01*
X76390476Y-78430476D01*
X76295238Y-78478095D01*
%TO.C,H2*%
X74168095Y-118872380D02*
X74168095Y-117872380D01*
X74168095Y-118348571D02*
X74739523Y-118348571D01*
X74739523Y-118872380D02*
X74739523Y-117872380D01*
X75168095Y-117967619D02*
X75215714Y-117920000D01*
X75310952Y-117872380D01*
X75549047Y-117872380D01*
X75644285Y-117920000D01*
X75691904Y-117967619D01*
X75739523Y-118062857D01*
X75739523Y-118158095D01*
X75691904Y-118300952D01*
X75120476Y-118872380D01*
X75739523Y-118872380D01*
%TO.C,H1*%
X211328095Y-65532380D02*
X211328095Y-64532380D01*
X211328095Y-65008571D02*
X211899523Y-65008571D01*
X211899523Y-65532380D02*
X211899523Y-64532380D01*
X212899523Y-65532380D02*
X212328095Y-65532380D01*
X212613809Y-65532380D02*
X212613809Y-64532380D01*
X212518571Y-64675238D01*
X212423333Y-64770476D01*
X212328095Y-64818095D01*
%TO.C,MES1*%
X108722380Y-122388095D02*
X107722380Y-122388095D01*
X108436666Y-122054761D01*
X107722380Y-121721428D01*
X108722380Y-121721428D01*
X108198571Y-121245238D02*
X108198571Y-120911904D01*
X108722380Y-120769047D02*
X108722380Y-121245238D01*
X107722380Y-121245238D01*
X107722380Y-120769047D01*
X108674761Y-120388095D02*
X108722380Y-120245238D01*
X108722380Y-120007142D01*
X108674761Y-119911904D01*
X108627142Y-119864285D01*
X108531904Y-119816666D01*
X108436666Y-119816666D01*
X108341428Y-119864285D01*
X108293809Y-119911904D01*
X108246190Y-120007142D01*
X108198571Y-120197619D01*
X108150952Y-120292857D01*
X108103333Y-120340476D01*
X108008095Y-120388095D01*
X107912857Y-120388095D01*
X107817619Y-120340476D01*
X107770000Y-120292857D01*
X107722380Y-120197619D01*
X107722380Y-119959523D01*
X107770000Y-119816666D01*
X108722380Y-118864285D02*
X108722380Y-119435714D01*
X108722380Y-119150000D02*
X107722380Y-119150000D01*
X107865238Y-119245238D01*
X107960476Y-119340476D01*
X108008095Y-119435714D01*
%TO.C,C4*%
X177693333Y-124907142D02*
X177645714Y-124954761D01*
X177502857Y-125002380D01*
X177407619Y-125002380D01*
X177264761Y-124954761D01*
X177169523Y-124859523D01*
X177121904Y-124764285D01*
X177074285Y-124573809D01*
X177074285Y-124430952D01*
X177121904Y-124240476D01*
X177169523Y-124145238D01*
X177264761Y-124050000D01*
X177407619Y-124002380D01*
X177502857Y-124002380D01*
X177645714Y-124050000D01*
X177693333Y-124097619D01*
X178550476Y-124335714D02*
X178550476Y-125002380D01*
X178312380Y-123954761D02*
X178074285Y-124669047D01*
X178693333Y-124669047D01*
%TO.C,R3*%
X200462380Y-71286666D02*
X199986190Y-71620000D01*
X200462380Y-71858095D02*
X199462380Y-71858095D01*
X199462380Y-71477142D01*
X199510000Y-71381904D01*
X199557619Y-71334285D01*
X199652857Y-71286666D01*
X199795714Y-71286666D01*
X199890952Y-71334285D01*
X199938571Y-71381904D01*
X199986190Y-71477142D01*
X199986190Y-71858095D01*
X199462380Y-70953333D02*
X199462380Y-70334285D01*
X199843333Y-70667619D01*
X199843333Y-70524761D01*
X199890952Y-70429523D01*
X199938571Y-70381904D01*
X200033809Y-70334285D01*
X200271904Y-70334285D01*
X200367142Y-70381904D01*
X200414761Y-70429523D01*
X200462380Y-70524761D01*
X200462380Y-70810476D01*
X200414761Y-70905714D01*
X200367142Y-70953333D01*
%TO.C,C3*%
X180137142Y-88546666D02*
X180184761Y-88594285D01*
X180232380Y-88737142D01*
X180232380Y-88832380D01*
X180184761Y-88975238D01*
X180089523Y-89070476D01*
X179994285Y-89118095D01*
X179803809Y-89165714D01*
X179660952Y-89165714D01*
X179470476Y-89118095D01*
X179375238Y-89070476D01*
X179280000Y-88975238D01*
X179232380Y-88832380D01*
X179232380Y-88737142D01*
X179280000Y-88594285D01*
X179327619Y-88546666D01*
X179232380Y-88213333D02*
X179232380Y-87594285D01*
X179613333Y-87927619D01*
X179613333Y-87784761D01*
X179660952Y-87689523D01*
X179708571Y-87641904D01*
X179803809Y-87594285D01*
X180041904Y-87594285D01*
X180137142Y-87641904D01*
X180184761Y-87689523D01*
X180232380Y-87784761D01*
X180232380Y-88070476D01*
X180184761Y-88165714D01*
X180137142Y-88213333D01*
%TO.C,R1*%
X162393333Y-87462380D02*
X162060000Y-86986190D01*
X161821904Y-87462380D02*
X161821904Y-86462380D01*
X162202857Y-86462380D01*
X162298095Y-86510000D01*
X162345714Y-86557619D01*
X162393333Y-86652857D01*
X162393333Y-86795714D01*
X162345714Y-86890952D01*
X162298095Y-86938571D01*
X162202857Y-86986190D01*
X161821904Y-86986190D01*
X163345714Y-87462380D02*
X162774285Y-87462380D01*
X163060000Y-87462380D02*
X163060000Y-86462380D01*
X162964761Y-86605238D01*
X162869523Y-86700476D01*
X162774285Y-86748095D01*
%TO.C,U2*%
X179727380Y-75141904D02*
X180536904Y-75141904D01*
X180632142Y-75094285D01*
X180679761Y-75046666D01*
X180727380Y-74951428D01*
X180727380Y-74760952D01*
X180679761Y-74665714D01*
X180632142Y-74618095D01*
X180536904Y-74570476D01*
X179727380Y-74570476D01*
X179822619Y-74141904D02*
X179775000Y-74094285D01*
X179727380Y-73999047D01*
X179727380Y-73760952D01*
X179775000Y-73665714D01*
X179822619Y-73618095D01*
X179917857Y-73570476D01*
X180013095Y-73570476D01*
X180155952Y-73618095D01*
X180727380Y-74189523D01*
X180727380Y-73570476D01*
%TO.C,U1*%
X151638095Y-73922380D02*
X151638095Y-74731904D01*
X151685714Y-74827142D01*
X151733333Y-74874761D01*
X151828571Y-74922380D01*
X152019047Y-74922380D01*
X152114285Y-74874761D01*
X152161904Y-74827142D01*
X152209523Y-74731904D01*
X152209523Y-73922380D01*
X153209523Y-74922380D02*
X152638095Y-74922380D01*
X152923809Y-74922380D02*
X152923809Y-73922380D01*
X152828571Y-74065238D01*
X152733333Y-74160476D01*
X152638095Y-74208095D01*
%TO.C,R2*%
X154773333Y-93812380D02*
X154440000Y-93336190D01*
X154201904Y-93812380D02*
X154201904Y-92812380D01*
X154582857Y-92812380D01*
X154678095Y-92860000D01*
X154725714Y-92907619D01*
X154773333Y-93002857D01*
X154773333Y-93145714D01*
X154725714Y-93240952D01*
X154678095Y-93288571D01*
X154582857Y-93336190D01*
X154201904Y-93336190D01*
X155154285Y-92907619D02*
X155201904Y-92860000D01*
X155297142Y-92812380D01*
X155535238Y-92812380D01*
X155630476Y-92860000D01*
X155678095Y-92907619D01*
X155725714Y-93002857D01*
X155725714Y-93098095D01*
X155678095Y-93240952D01*
X155106666Y-93812380D01*
X155725714Y-93812380D01*
%TO.C,L1*%
X216672380Y-114151666D02*
X216672380Y-114627857D01*
X215672380Y-114627857D01*
X216672380Y-113294523D02*
X216672380Y-113865952D01*
X216672380Y-113580238D02*
X215672380Y-113580238D01*
X215815238Y-113675476D01*
X215910476Y-113770714D01*
X215958095Y-113865952D01*
%TO.C,D2*%
X185951904Y-94362380D02*
X185951904Y-93362380D01*
X186190000Y-93362380D01*
X186332857Y-93410000D01*
X186428095Y-93505238D01*
X186475714Y-93600476D01*
X186523333Y-93790952D01*
X186523333Y-93933809D01*
X186475714Y-94124285D01*
X186428095Y-94219523D01*
X186332857Y-94314761D01*
X186190000Y-94362380D01*
X185951904Y-94362380D01*
X186904285Y-93457619D02*
X186951904Y-93410000D01*
X187047142Y-93362380D01*
X187285238Y-93362380D01*
X187380476Y-93410000D01*
X187428095Y-93457619D01*
X187475714Y-93552857D01*
X187475714Y-93648095D01*
X187428095Y-93790952D01*
X186856666Y-94362380D01*
X187475714Y-94362380D01*
X190238095Y-93792380D02*
X190238095Y-92792380D01*
X190809523Y-93792380D02*
X190380952Y-93220952D01*
X190809523Y-92792380D02*
X190238095Y-93363809D01*
%TO.C,D1*%
X102028206Y-75997969D02*
X102735312Y-75290862D01*
X102903671Y-75459221D01*
X102971015Y-75593908D01*
X102971015Y-75728595D01*
X102937343Y-75829610D01*
X102836328Y-75997969D01*
X102735312Y-76098984D01*
X102566954Y-76200000D01*
X102465938Y-76233671D01*
X102331251Y-76233671D01*
X102196564Y-76166328D01*
X102028206Y-75997969D01*
X103105702Y-77075465D02*
X102701641Y-76671404D01*
X102903671Y-76873435D02*
X103610778Y-76166328D01*
X103442419Y-76200000D01*
X103307732Y-76200000D01*
X103206717Y-76166328D01*
%TO.C,C2*%
X144613333Y-94337142D02*
X144565714Y-94384761D01*
X144422857Y-94432380D01*
X144327619Y-94432380D01*
X144184761Y-94384761D01*
X144089523Y-94289523D01*
X144041904Y-94194285D01*
X143994285Y-94003809D01*
X143994285Y-93860952D01*
X144041904Y-93670476D01*
X144089523Y-93575238D01*
X144184761Y-93480000D01*
X144327619Y-93432380D01*
X144422857Y-93432380D01*
X144565714Y-93480000D01*
X144613333Y-93527619D01*
X144994285Y-93527619D02*
X145041904Y-93480000D01*
X145137142Y-93432380D01*
X145375238Y-93432380D01*
X145470476Y-93480000D01*
X145518095Y-93527619D01*
X145565714Y-93622857D01*
X145565714Y-93718095D01*
X145518095Y-93860952D01*
X144946666Y-94432380D01*
X145565714Y-94432380D01*
%TO.C,C1*%
X128103333Y-99417142D02*
X128055714Y-99464761D01*
X127912857Y-99512380D01*
X127817619Y-99512380D01*
X127674761Y-99464761D01*
X127579523Y-99369523D01*
X127531904Y-99274285D01*
X127484285Y-99083809D01*
X127484285Y-98940952D01*
X127531904Y-98750476D01*
X127579523Y-98655238D01*
X127674761Y-98560000D01*
X127817619Y-98512380D01*
X127912857Y-98512380D01*
X128055714Y-98560000D01*
X128103333Y-98607619D01*
X129055714Y-99512380D02*
X128484285Y-99512380D01*
X128770000Y-99512380D02*
X128770000Y-98512380D01*
X128674761Y-98655238D01*
X128579523Y-98750476D01*
X128484285Y-98798095D01*
%TD*%
%LPC*%
D12*
%TO.C,RV1*%
X209550000Y-83820000D03*
X207010000Y-86360000D03*
X209550000Y-88900000D03*
%TD*%
D13*
%TO.C,J2*%
X101440000Y-118110000D03*
X96440000Y-118110000D03*
D14*
X91440000Y-118110000D03*
%TD*%
D13*
%TO.C,J1*%
X80010000Y-92550000D03*
X80010000Y-87550000D03*
D14*
X80010000Y-82550000D03*
%TD*%
D15*
%TO.C,H2*%
X74930000Y-121920000D03*
%TD*%
%TO.C,H1*%
X212090000Y-68580000D03*
%TD*%
D16*
%TO.C,MES1*%
X128270000Y-105410000D03*
X130810000Y-105410000D03*
X133350000Y-105410000D03*
X135890000Y-105410000D03*
X138430000Y-105410000D03*
X140970000Y-105410000D03*
X140970000Y-120650000D03*
X138430000Y-120650000D03*
X135890000Y-120650000D03*
X133350000Y-120650000D03*
X130810000Y-120650000D03*
D17*
X128270000Y-120650000D03*
%TD*%
D18*
%TO.C,C4*%
X174110000Y-114300000D03*
X181610000Y-114300000D03*
%TD*%
D19*
%TO.C,R3*%
X201930000Y-67310000D03*
D20*
X201930000Y-74930000D03*
%TD*%
D21*
%TO.C,C3*%
X176530000Y-89130000D03*
X176530000Y-87630000D03*
%TD*%
D19*
%TO.C,R1*%
X158750000Y-85090000D03*
D20*
X166370000Y-85090000D03*
%TD*%
D22*
%TO.C,U2*%
X186925000Y-71005000D03*
D23*
X190325000Y-80155000D03*
X188625000Y-80155000D03*
X186925000Y-80155000D03*
X185225000Y-80155000D03*
X183525000Y-80155000D03*
%TD*%
D24*
%TO.C,U1*%
X154940000Y-78740000D03*
X152400000Y-78740000D03*
D25*
X149860000Y-78740000D03*
%TD*%
D19*
%TO.C,R2*%
X151130000Y-91440000D03*
D20*
X158750000Y-91440000D03*
%TD*%
D13*
%TO.C,L1*%
X204470000Y-121290000D03*
X204470000Y-106680000D03*
%TD*%
D26*
%TO.C,D2*%
X182880000Y-91440000D03*
D27*
X190500000Y-91440000D03*
%TD*%
D13*
%TO.C,D1*%
X101333911Y-94983911D03*
D28*
G36*
X93980000Y-89468478D02*
G01*
X92141522Y-87630000D01*
X93980000Y-85791522D01*
X95818478Y-87630000D01*
X93980000Y-89468478D01*
G37*
D13*
X101333911Y-80276089D03*
X108687821Y-87630000D03*
%TD*%
D29*
%TO.C,C2*%
X144780000Y-91360000D03*
X144780000Y-86360000D03*
%TD*%
D18*
%TO.C,C1*%
X128270000Y-92590000D03*
X128270000Y-85090000D03*
%TD*%
M02*
