%TF.GenerationSoftware,KiCad,Pcbnew,(5.1.10)-1*%
%TF.CreationDate,2021-12-30T01:37:01+05:30*%
%TF.ProjectId,New,4e65772e-6b69-4636-9164-5f7063625858,Final*%
%TF.SameCoordinates,Original*%
%TF.FileFunction,Copper,L1,Top*%
%TF.FilePolarity,Positive*%
%FSLAX46Y46*%
G04 Gerber Fmt 4.6, Leading zero omitted, Abs format (unit mm)*
G04 Created by KiCad (PCBNEW (5.1.10)-1) date 2021-12-30 01:37:01*
%MOMM*%
%LPD*%
G01*
G04 APERTURE LIST*
%TA.AperFunction,ComponentPad*%
%ADD10C,1.440000*%
%TD*%
%TA.AperFunction,ComponentPad*%
%ADD11C,2.600000*%
%TD*%
%TA.AperFunction,ComponentPad*%
%ADD12R,2.600000X2.600000*%
%TD*%
%TA.AperFunction,ComponentPad*%
%ADD13C,5.000000*%
%TD*%
%TA.AperFunction,ComponentPad*%
%ADD14C,1.500000*%
%TD*%
%TA.AperFunction,ComponentPad*%
%ADD15R,1.500000X1.500000*%
%TD*%
%TA.AperFunction,ComponentPad*%
%ADD16C,2.000000*%
%TD*%
%TA.AperFunction,ComponentPad*%
%ADD17O,1.400000X1.400000*%
%TD*%
%TA.AperFunction,ComponentPad*%
%ADD18C,1.400000*%
%TD*%
%TA.AperFunction,ComponentPad*%
%ADD19C,1.200000*%
%TD*%
%TA.AperFunction,SMDPad,CuDef*%
%ADD20R,10.800000X9.400000*%
%TD*%
%TA.AperFunction,SMDPad,CuDef*%
%ADD21R,1.100000X4.600000*%
%TD*%
%TA.AperFunction,ComponentPad*%
%ADD22O,1.905000X2.000000*%
%TD*%
%TA.AperFunction,ComponentPad*%
%ADD23R,1.905000X2.000000*%
%TD*%
%TA.AperFunction,ComponentPad*%
%ADD24O,1.800000X1.800000*%
%TD*%
%TA.AperFunction,ComponentPad*%
%ADD25R,1.800000X1.800000*%
%TD*%
%TA.AperFunction,ComponentPad*%
%ADD26C,0.100000*%
%TD*%
%TA.AperFunction,ComponentPad*%
%ADD27C,1.600000*%
%TD*%
%TA.AperFunction,ViaPad*%
%ADD28C,0.800000*%
%TD*%
%TA.AperFunction,Conductor*%
%ADD29C,0.250000*%
%TD*%
%TA.AperFunction,Conductor*%
%ADD30C,1.400000*%
%TD*%
%TA.AperFunction,Conductor*%
%ADD31C,0.254000*%
%TD*%
%TA.AperFunction,Conductor*%
%ADD32C,0.100000*%
%TD*%
G04 APERTURE END LIST*
D10*
%TO.P,RV1,3*%
%TO.N,Net-(R3-Pad1)*%
X209550000Y-83820000D03*
%TO.P,RV1,2*%
%TO.N,Net-(RV1-Pad2)*%
X207010000Y-86360000D03*
%TO.P,RV1,1*%
%TO.N,Net-(D2-Pad1)*%
X209550000Y-88900000D03*
%TD*%
D11*
%TO.P,J2,3*%
%TO.N,GND*%
X101440000Y-118110000D03*
%TO.P,J2,2*%
%TO.N,Net-(C4-Pad1)*%
X96440000Y-118110000D03*
D12*
%TO.P,J2,1*%
%TO.N,Net-(J2-Pad1)*%
X91440000Y-118110000D03*
%TD*%
D11*
%TO.P,J1,3*%
%TO.N,Net-(D1-Pad2)*%
X80010000Y-92550000D03*
%TO.P,J1,2*%
%TO.N,Net-(J1-Pad2)*%
X80010000Y-87550000D03*
D12*
%TO.P,J1,1*%
%TO.N,Net-(D1-Pad4)*%
X80010000Y-82550000D03*
%TD*%
D13*
%TO.P,H2,1*%
%TO.N,Net-(C4-Pad1)*%
X74930000Y-121920000D03*
%TD*%
%TO.P,H1,1*%
%TO.N,GND*%
X212090000Y-68580000D03*
%TD*%
D14*
%TO.P,MES1,12*%
%TO.N,N/C*%
X128270000Y-105410000D03*
%TO.P,MES1,11*%
X130810000Y-105410000D03*
%TO.P,MES1,10*%
X133350000Y-105410000D03*
%TO.P,MES1,9*%
X135890000Y-105410000D03*
%TO.P,MES1,8*%
X138430000Y-105410000D03*
%TO.P,MES1,7*%
X140970000Y-105410000D03*
%TO.P,MES1,6*%
X140970000Y-120650000D03*
%TO.P,MES1,5*%
X138430000Y-120650000D03*
%TO.P,MES1,4*%
X135890000Y-120650000D03*
%TO.P,MES1,3*%
X133350000Y-120650000D03*
%TO.P,MES1,2*%
%TO.N,Net-(C4-Pad1)*%
X130810000Y-120650000D03*
D15*
%TO.P,MES1,1*%
%TO.N,GND*%
X128270000Y-120650000D03*
%TD*%
D16*
%TO.P,C4,2*%
%TO.N,GND*%
X174110000Y-114300000D03*
%TO.P,C4,1*%
%TO.N,Net-(C4-Pad1)*%
X181610000Y-114300000D03*
%TD*%
D17*
%TO.P,R3,2*%
%TO.N,GND*%
X201930000Y-67310000D03*
D18*
%TO.P,R3,1*%
%TO.N,Net-(R3-Pad1)*%
X201930000Y-74930000D03*
%TD*%
D19*
%TO.P,C3,2*%
%TO.N,GND*%
X176530000Y-89130000D03*
%TO.P,C3,1*%
%TO.N,Net-(C3-Pad1)*%
X176530000Y-87630000D03*
%TD*%
D17*
%TO.P,R1,2*%
%TO.N,Net-(R1-Pad2)*%
X158750000Y-85090000D03*
D18*
%TO.P,R1,1*%
%TO.N,Net-(C3-Pad1)*%
X166370000Y-85090000D03*
%TD*%
D20*
%TO.P,U2,3*%
%TO.N,GND*%
X186925000Y-71005000D03*
D21*
%TO.P,U2,5*%
%TO.N,Net-(U2-Pad5)*%
X190325000Y-80155000D03*
%TO.P,U2,4*%
%TO.N,Net-(RV1-Pad2)*%
X188625000Y-80155000D03*
%TO.P,U2,3*%
%TO.N,GND*%
X186925000Y-80155000D03*
%TO.P,U2,2*%
%TO.N,Net-(D2-Pad1)*%
X185225000Y-80155000D03*
%TO.P,U2,1*%
%TO.N,Net-(C3-Pad1)*%
X183525000Y-80155000D03*
%TD*%
D22*
%TO.P,U1,3*%
%TO.N,Net-(C1-Pad1)*%
X154940000Y-78740000D03*
%TO.P,U1,2*%
%TO.N,Net-(C3-Pad1)*%
X152400000Y-78740000D03*
D23*
%TO.P,U1,1*%
%TO.N,Net-(R1-Pad2)*%
X149860000Y-78740000D03*
%TD*%
D17*
%TO.P,R2,2*%
%TO.N,GND*%
X151130000Y-91440000D03*
D18*
%TO.P,R2,1*%
%TO.N,Net-(R1-Pad2)*%
X158750000Y-91440000D03*
%TD*%
D11*
%TO.P,L1,2*%
%TO.N,Net-(C4-Pad1)*%
X204470000Y-121290000D03*
%TO.P,L1,1*%
%TO.N,Net-(D2-Pad1)*%
X204470000Y-106680000D03*
%TD*%
D24*
%TO.P,D2,2*%
%TO.N,GND*%
X182880000Y-91440000D03*
D25*
%TO.P,D2,1*%
%TO.N,Net-(D2-Pad1)*%
X190500000Y-91440000D03*
%TD*%
D11*
%TO.P,D1,2*%
%TO.N,Net-(D1-Pad2)*%
X101333911Y-94983911D03*
%TA.AperFunction,ComponentPad*%
D26*
%TO.P,D1,1*%
%TO.N,GND*%
G36*
X93980000Y-89468478D02*
G01*
X92141522Y-87630000D01*
X93980000Y-85791522D01*
X95818478Y-87630000D01*
X93980000Y-89468478D01*
G37*
%TD.AperFunction*%
D11*
%TO.P,D1,4*%
%TO.N,Net-(D1-Pad4)*%
X101333911Y-80276089D03*
%TO.P,D1,3*%
%TO.N,Net-(C1-Pad1)*%
X108687821Y-87630000D03*
%TD*%
D27*
%TO.P,C2,2*%
%TO.N,GND*%
X144780000Y-91360000D03*
%TO.P,C2,1*%
%TO.N,Net-(C1-Pad1)*%
X144780000Y-86360000D03*
%TD*%
D16*
%TO.P,C1,2*%
%TO.N,GND*%
X128270000Y-92590000D03*
%TO.P,C1,1*%
%TO.N,Net-(C1-Pad1)*%
X128270000Y-85090000D03*
%TD*%
D28*
%TO.N,GND*%
X189230000Y-86360000D03*
%TD*%
D29*
%TO.N,GND*%
X151050000Y-91360000D02*
X151130000Y-91440000D01*
X144780000Y-91360000D02*
X151050000Y-91360000D01*
X189350000Y-68580000D02*
X186925000Y-71005000D01*
X127948998Y-120971002D02*
X128270000Y-120650000D01*
D30*
X190620000Y-67310000D02*
X186925000Y-71005000D01*
X201930000Y-67310000D02*
X190620000Y-67310000D01*
X209550000Y-67310000D02*
X201930000Y-67310000D01*
X212090000Y-68580000D02*
X209550000Y-67310000D01*
X186925000Y-84055000D02*
X189230000Y-86360000D01*
X186925000Y-80155000D02*
X186925000Y-84055000D01*
%TO.N,Net-(C1-Pad1)*%
X111227821Y-85090000D02*
X108687821Y-87630000D01*
X128270000Y-85090000D02*
X111227821Y-85090000D01*
X143510000Y-85090000D02*
X144780000Y-86360000D01*
X128270000Y-85090000D02*
X143510000Y-85090000D01*
%TO.N,Net-(C3-Pad1)*%
X164769999Y-83489999D02*
X166370000Y-85090000D01*
X152400000Y-78867344D02*
X152400000Y-78740000D01*
X157022655Y-83489999D02*
X152400000Y-78867344D01*
X164769999Y-83489999D02*
X157022655Y-83489999D01*
X183525000Y-80635000D02*
X176530000Y-87630000D01*
X183525000Y-80155000D02*
X183525000Y-80635000D01*
X168910000Y-87630000D02*
X166370000Y-85090000D01*
X176530000Y-87630000D02*
X168910000Y-87630000D01*
D29*
%TO.N,Net-(C4-Pad1)*%
X130615001Y-120844999D02*
X130810000Y-120650000D01*
D30*
X188600000Y-121290000D02*
X181610000Y-114300000D01*
X204470000Y-121290000D02*
X188600000Y-121290000D01*
X171450000Y-124460000D02*
X134620000Y-124460000D01*
X181610000Y-114300000D02*
X171450000Y-124460000D01*
X96520000Y-118190000D02*
X96440000Y-118110000D01*
X96520000Y-124460000D02*
X96520000Y-118190000D01*
X77470000Y-124460000D02*
X74930000Y-121920000D01*
X96520000Y-124460000D02*
X77470000Y-124460000D01*
X130810000Y-124460000D02*
X130810000Y-120650000D01*
X130810000Y-124460000D02*
X96520000Y-124460000D01*
X134620000Y-124460000D02*
X130810000Y-124460000D01*
%TO.N,Net-(D1-Pad2)*%
X82443911Y-94983911D02*
X80010000Y-92550000D01*
X101333911Y-94983911D02*
X82443911Y-94983911D01*
D29*
%TO.N,Net-(D1-Pad4)*%
X101333911Y-80276089D02*
X101333911Y-79743911D01*
D30*
X82283911Y-80276089D02*
X80010000Y-82550000D01*
X101333911Y-80276089D02*
X82283911Y-80276089D01*
D29*
%TO.N,Net-(D2-Pad1)*%
X209550000Y-101600000D02*
X204470000Y-106680000D01*
X209550000Y-88900000D02*
X209550000Y-101600000D01*
D30*
X185225000Y-86165000D02*
X190500000Y-91440000D01*
X185225000Y-80155000D02*
X185225000Y-86165000D01*
X190500000Y-92710000D02*
X204470000Y-106680000D01*
X190500000Y-91440000D02*
X190500000Y-92710000D01*
D29*
%TO.N,Net-(R1-Pad2)*%
X158750000Y-91440000D02*
X158750000Y-85090000D01*
X154960000Y-85090000D02*
X158750000Y-85090000D01*
X149860000Y-78740000D02*
X149860000Y-79990000D01*
X149860000Y-79990000D02*
X154960000Y-85090000D01*
%TO.N,Net-(R3-Pad1)*%
X209550000Y-82550000D02*
X201930000Y-74930000D01*
X209550000Y-83820000D02*
X209550000Y-82550000D01*
%TO.N,Net-(RV1-Pad2)*%
X188625000Y-81890002D02*
X188625000Y-80155000D01*
X188625000Y-82960000D02*
X188625000Y-80155000D01*
X192025000Y-86360000D02*
X188625000Y-82960000D01*
X207010000Y-86360000D02*
X192025000Y-86360000D01*
%TD*%
D31*
%TO.N,GND*%
X216510001Y-64737572D02*
X216510000Y-64737582D01*
X216510001Y-126340000D01*
X70510000Y-126340000D01*
X70510000Y-121611229D01*
X71795000Y-121611229D01*
X71795000Y-122228771D01*
X71915476Y-122834446D01*
X72151799Y-123404979D01*
X72494886Y-123918446D01*
X72931554Y-124355114D01*
X73445021Y-124698201D01*
X74015554Y-124934524D01*
X74621229Y-125055000D01*
X75238771Y-125055000D01*
X75844446Y-124934524D01*
X75994426Y-124872400D01*
X76479639Y-125357614D01*
X76521445Y-125408555D01*
X76724725Y-125575382D01*
X76956646Y-125699347D01*
X77208294Y-125775683D01*
X77404421Y-125795000D01*
X77404423Y-125795000D01*
X77469999Y-125801459D01*
X77535575Y-125795000D01*
X96454421Y-125795000D01*
X96520000Y-125801459D01*
X96585579Y-125795000D01*
X130744421Y-125795000D01*
X130810000Y-125801459D01*
X130875579Y-125795000D01*
X171384421Y-125795000D01*
X171450000Y-125801459D01*
X171515579Y-125795000D01*
X171711706Y-125775683D01*
X171963354Y-125699347D01*
X172195275Y-125575382D01*
X172398555Y-125408555D01*
X172440366Y-125357608D01*
X181610001Y-116187975D01*
X187609643Y-122187619D01*
X187651445Y-122238555D01*
X187854725Y-122405382D01*
X188086646Y-122529347D01*
X188338294Y-122605683D01*
X188600000Y-122631459D01*
X188665579Y-122625000D01*
X203068496Y-122625000D01*
X203236509Y-122793013D01*
X203553434Y-123004775D01*
X203905581Y-123150639D01*
X204279419Y-123225000D01*
X204660581Y-123225000D01*
X205034419Y-123150639D01*
X205386566Y-123004775D01*
X205703491Y-122793013D01*
X205973013Y-122523491D01*
X206184775Y-122206566D01*
X206330639Y-121854419D01*
X206405000Y-121480581D01*
X206405000Y-121099419D01*
X206330639Y-120725581D01*
X206184775Y-120373434D01*
X205973013Y-120056509D01*
X205703491Y-119786987D01*
X205386566Y-119575225D01*
X205034419Y-119429361D01*
X204660581Y-119355000D01*
X204279419Y-119355000D01*
X203905581Y-119429361D01*
X203553434Y-119575225D01*
X203236509Y-119786987D01*
X203068496Y-119955000D01*
X189152976Y-119955000D01*
X183222171Y-114024197D01*
X183182168Y-113823088D01*
X183058918Y-113525537D01*
X182879987Y-113257748D01*
X182652252Y-113030013D01*
X182384463Y-112851082D01*
X182086912Y-112727832D01*
X181771033Y-112665000D01*
X181448967Y-112665000D01*
X181133088Y-112727832D01*
X180835537Y-112851082D01*
X180567748Y-113030013D01*
X180340013Y-113257748D01*
X180161082Y-113525537D01*
X180037832Y-113823088D01*
X179997830Y-114024195D01*
X170897026Y-123125000D01*
X132145000Y-123125000D01*
X132145000Y-121339523D01*
X132274201Y-121532886D01*
X132467114Y-121725799D01*
X132693957Y-121877371D01*
X132946011Y-121981775D01*
X133213589Y-122035000D01*
X133486411Y-122035000D01*
X133753989Y-121981775D01*
X134006043Y-121877371D01*
X134232886Y-121725799D01*
X134425799Y-121532886D01*
X134577371Y-121306043D01*
X134620000Y-121203127D01*
X134662629Y-121306043D01*
X134814201Y-121532886D01*
X135007114Y-121725799D01*
X135233957Y-121877371D01*
X135486011Y-121981775D01*
X135753589Y-122035000D01*
X136026411Y-122035000D01*
X136293989Y-121981775D01*
X136546043Y-121877371D01*
X136772886Y-121725799D01*
X136965799Y-121532886D01*
X137117371Y-121306043D01*
X137160000Y-121203127D01*
X137202629Y-121306043D01*
X137354201Y-121532886D01*
X137547114Y-121725799D01*
X137773957Y-121877371D01*
X138026011Y-121981775D01*
X138293589Y-122035000D01*
X138566411Y-122035000D01*
X138833989Y-121981775D01*
X139086043Y-121877371D01*
X139312886Y-121725799D01*
X139505799Y-121532886D01*
X139657371Y-121306043D01*
X139700000Y-121203127D01*
X139742629Y-121306043D01*
X139894201Y-121532886D01*
X140087114Y-121725799D01*
X140313957Y-121877371D01*
X140566011Y-121981775D01*
X140833589Y-122035000D01*
X141106411Y-122035000D01*
X141373989Y-121981775D01*
X141626043Y-121877371D01*
X141852886Y-121725799D01*
X142045799Y-121532886D01*
X142197371Y-121306043D01*
X142301775Y-121053989D01*
X142355000Y-120786411D01*
X142355000Y-120513589D01*
X142301775Y-120246011D01*
X142197371Y-119993957D01*
X142045799Y-119767114D01*
X141852886Y-119574201D01*
X141626043Y-119422629D01*
X141373989Y-119318225D01*
X141106411Y-119265000D01*
X140833589Y-119265000D01*
X140566011Y-119318225D01*
X140313957Y-119422629D01*
X140087114Y-119574201D01*
X139894201Y-119767114D01*
X139742629Y-119993957D01*
X139700000Y-120096873D01*
X139657371Y-119993957D01*
X139505799Y-119767114D01*
X139312886Y-119574201D01*
X139086043Y-119422629D01*
X138833989Y-119318225D01*
X138566411Y-119265000D01*
X138293589Y-119265000D01*
X138026011Y-119318225D01*
X137773957Y-119422629D01*
X137547114Y-119574201D01*
X137354201Y-119767114D01*
X137202629Y-119993957D01*
X137160000Y-120096873D01*
X137117371Y-119993957D01*
X136965799Y-119767114D01*
X136772886Y-119574201D01*
X136546043Y-119422629D01*
X136293989Y-119318225D01*
X136026411Y-119265000D01*
X135753589Y-119265000D01*
X135486011Y-119318225D01*
X135233957Y-119422629D01*
X135007114Y-119574201D01*
X134814201Y-119767114D01*
X134662629Y-119993957D01*
X134620000Y-120096873D01*
X134577371Y-119993957D01*
X134425799Y-119767114D01*
X134232886Y-119574201D01*
X134006043Y-119422629D01*
X133753989Y-119318225D01*
X133486411Y-119265000D01*
X133213589Y-119265000D01*
X132946011Y-119318225D01*
X132693957Y-119422629D01*
X132467114Y-119574201D01*
X132274201Y-119767114D01*
X132122629Y-119993957D01*
X132080000Y-120096873D01*
X132037371Y-119993957D01*
X131885799Y-119767114D01*
X131692886Y-119574201D01*
X131466043Y-119422629D01*
X131213989Y-119318225D01*
X130946411Y-119265000D01*
X130673589Y-119265000D01*
X130406011Y-119318225D01*
X130153957Y-119422629D01*
X129927114Y-119574201D01*
X129734201Y-119767114D01*
X129656445Y-119883483D01*
X129645812Y-119775518D01*
X129609502Y-119655820D01*
X129550537Y-119545506D01*
X129471185Y-119448815D01*
X129374494Y-119369463D01*
X129264180Y-119310498D01*
X129144482Y-119274188D01*
X129020000Y-119261928D01*
X128555750Y-119265000D01*
X128397000Y-119423750D01*
X128397000Y-120523000D01*
X128417000Y-120523000D01*
X128417000Y-120777000D01*
X128397000Y-120777000D01*
X128397000Y-121876250D01*
X128555750Y-122035000D01*
X129020000Y-122038072D01*
X129144482Y-122025812D01*
X129264180Y-121989502D01*
X129374494Y-121930537D01*
X129471185Y-121851185D01*
X129475001Y-121846536D01*
X129475000Y-123125000D01*
X97855000Y-123125000D01*
X97855000Y-121400000D01*
X126881928Y-121400000D01*
X126894188Y-121524482D01*
X126930498Y-121644180D01*
X126989463Y-121754494D01*
X127068815Y-121851185D01*
X127165506Y-121930537D01*
X127275820Y-121989502D01*
X127395518Y-122025812D01*
X127520000Y-122038072D01*
X127984250Y-122035000D01*
X128143000Y-121876250D01*
X128143000Y-120777000D01*
X127043750Y-120777000D01*
X126885000Y-120935750D01*
X126881928Y-121400000D01*
X97855000Y-121400000D01*
X97855000Y-119459224D01*
X100270381Y-119459224D01*
X100402317Y-119754312D01*
X100743045Y-119925159D01*
X101110557Y-120026250D01*
X101490729Y-120053701D01*
X101868951Y-120006457D01*
X102189533Y-119900000D01*
X126881928Y-119900000D01*
X126885000Y-120364250D01*
X127043750Y-120523000D01*
X128143000Y-120523000D01*
X128143000Y-119423750D01*
X127984250Y-119265000D01*
X127520000Y-119261928D01*
X127395518Y-119274188D01*
X127275820Y-119310498D01*
X127165506Y-119369463D01*
X127068815Y-119448815D01*
X126989463Y-119545506D01*
X126930498Y-119655820D01*
X126894188Y-119775518D01*
X126881928Y-119900000D01*
X102189533Y-119900000D01*
X102230690Y-119886333D01*
X102477683Y-119754312D01*
X102609619Y-119459224D01*
X101440000Y-118289605D01*
X100270381Y-119459224D01*
X97855000Y-119459224D01*
X97855000Y-119431504D01*
X97943013Y-119343491D01*
X98154775Y-119026566D01*
X98300639Y-118674419D01*
X98375000Y-118300581D01*
X98375000Y-118160729D01*
X99496299Y-118160729D01*
X99543543Y-118538951D01*
X99663667Y-118900690D01*
X99795688Y-119147683D01*
X100090776Y-119279619D01*
X101260395Y-118110000D01*
X101619605Y-118110000D01*
X102789224Y-119279619D01*
X103084312Y-119147683D01*
X103255159Y-118806955D01*
X103356250Y-118439443D01*
X103383701Y-118059271D01*
X103336457Y-117681049D01*
X103216333Y-117319310D01*
X103084312Y-117072317D01*
X102789224Y-116940381D01*
X101619605Y-118110000D01*
X101260395Y-118110000D01*
X100090776Y-116940381D01*
X99795688Y-117072317D01*
X99624841Y-117413045D01*
X99523750Y-117780557D01*
X99496299Y-118160729D01*
X98375000Y-118160729D01*
X98375000Y-117919419D01*
X98300639Y-117545581D01*
X98154775Y-117193434D01*
X97943013Y-116876509D01*
X97827280Y-116760776D01*
X100270381Y-116760776D01*
X101440000Y-117930395D01*
X102609619Y-116760776D01*
X102477683Y-116465688D01*
X102136955Y-116294841D01*
X101769443Y-116193750D01*
X101389271Y-116166299D01*
X101011049Y-116213543D01*
X100649310Y-116333667D01*
X100402317Y-116465688D01*
X100270381Y-116760776D01*
X97827280Y-116760776D01*
X97673491Y-116606987D01*
X97356566Y-116395225D01*
X97004419Y-116249361D01*
X96630581Y-116175000D01*
X96249419Y-116175000D01*
X95875581Y-116249361D01*
X95523434Y-116395225D01*
X95206509Y-116606987D01*
X94936987Y-116876509D01*
X94725225Y-117193434D01*
X94579361Y-117545581D01*
X94505000Y-117919419D01*
X94505000Y-118300581D01*
X94579361Y-118674419D01*
X94725225Y-119026566D01*
X94936987Y-119343491D01*
X95185001Y-119591505D01*
X95185000Y-123125000D01*
X78022975Y-123125000D01*
X77882400Y-122984426D01*
X77944524Y-122834446D01*
X78065000Y-122228771D01*
X78065000Y-121611229D01*
X77944524Y-121005554D01*
X77708201Y-120435021D01*
X77365114Y-119921554D01*
X76928446Y-119484886D01*
X76414979Y-119141799D01*
X75844446Y-118905476D01*
X75238771Y-118785000D01*
X74621229Y-118785000D01*
X74015554Y-118905476D01*
X73445021Y-119141799D01*
X72931554Y-119484886D01*
X72494886Y-119921554D01*
X72151799Y-120435021D01*
X71915476Y-121005554D01*
X71795000Y-121611229D01*
X70510000Y-121611229D01*
X70510000Y-116810000D01*
X89501928Y-116810000D01*
X89501928Y-119410000D01*
X89514188Y-119534482D01*
X89550498Y-119654180D01*
X89609463Y-119764494D01*
X89688815Y-119861185D01*
X89785506Y-119940537D01*
X89895820Y-119999502D01*
X90015518Y-120035812D01*
X90140000Y-120048072D01*
X92740000Y-120048072D01*
X92864482Y-120035812D01*
X92984180Y-119999502D01*
X93094494Y-119940537D01*
X93191185Y-119861185D01*
X93270537Y-119764494D01*
X93329502Y-119654180D01*
X93365812Y-119534482D01*
X93378072Y-119410000D01*
X93378072Y-116810000D01*
X93365812Y-116685518D01*
X93329502Y-116565820D01*
X93270537Y-116455506D01*
X93191185Y-116358815D01*
X93094494Y-116279463D01*
X92984180Y-116220498D01*
X92864482Y-116184188D01*
X92740000Y-116171928D01*
X90140000Y-116171928D01*
X90015518Y-116184188D01*
X89895820Y-116220498D01*
X89785506Y-116279463D01*
X89688815Y-116358815D01*
X89609463Y-116455506D01*
X89550498Y-116565820D01*
X89514188Y-116685518D01*
X89501928Y-116810000D01*
X70510000Y-116810000D01*
X70510000Y-115435413D01*
X173154192Y-115435413D01*
X173249956Y-115699814D01*
X173539571Y-115840704D01*
X173851108Y-115922384D01*
X174172595Y-115941718D01*
X174491675Y-115897961D01*
X174796088Y-115792795D01*
X174970044Y-115699814D01*
X175065808Y-115435413D01*
X174110000Y-114479605D01*
X173154192Y-115435413D01*
X70510000Y-115435413D01*
X70510000Y-114362595D01*
X172468282Y-114362595D01*
X172512039Y-114681675D01*
X172617205Y-114986088D01*
X172710186Y-115160044D01*
X172974587Y-115255808D01*
X173930395Y-114300000D01*
X174289605Y-114300000D01*
X175245413Y-115255808D01*
X175509814Y-115160044D01*
X175650704Y-114870429D01*
X175732384Y-114558892D01*
X175751718Y-114237405D01*
X175707961Y-113918325D01*
X175602795Y-113613912D01*
X175509814Y-113439956D01*
X175245413Y-113344192D01*
X174289605Y-114300000D01*
X173930395Y-114300000D01*
X172974587Y-113344192D01*
X172710186Y-113439956D01*
X172569296Y-113729571D01*
X172487616Y-114041108D01*
X172468282Y-114362595D01*
X70510000Y-114362595D01*
X70510000Y-113164587D01*
X173154192Y-113164587D01*
X174110000Y-114120395D01*
X175065808Y-113164587D01*
X174970044Y-112900186D01*
X174680429Y-112759296D01*
X174368892Y-112677616D01*
X174047405Y-112658282D01*
X173728325Y-112702039D01*
X173423912Y-112807205D01*
X173249956Y-112900186D01*
X173154192Y-113164587D01*
X70510000Y-113164587D01*
X70510000Y-105273589D01*
X126885000Y-105273589D01*
X126885000Y-105546411D01*
X126938225Y-105813989D01*
X127042629Y-106066043D01*
X127194201Y-106292886D01*
X127387114Y-106485799D01*
X127613957Y-106637371D01*
X127866011Y-106741775D01*
X128133589Y-106795000D01*
X128406411Y-106795000D01*
X128673989Y-106741775D01*
X128926043Y-106637371D01*
X129152886Y-106485799D01*
X129345799Y-106292886D01*
X129497371Y-106066043D01*
X129540000Y-105963127D01*
X129582629Y-106066043D01*
X129734201Y-106292886D01*
X129927114Y-106485799D01*
X130153957Y-106637371D01*
X130406011Y-106741775D01*
X130673589Y-106795000D01*
X130946411Y-106795000D01*
X131213989Y-106741775D01*
X131466043Y-106637371D01*
X131692886Y-106485799D01*
X131885799Y-106292886D01*
X132037371Y-106066043D01*
X132080000Y-105963127D01*
X132122629Y-106066043D01*
X132274201Y-106292886D01*
X132467114Y-106485799D01*
X132693957Y-106637371D01*
X132946011Y-106741775D01*
X133213589Y-106795000D01*
X133486411Y-106795000D01*
X133753989Y-106741775D01*
X134006043Y-106637371D01*
X134232886Y-106485799D01*
X134425799Y-106292886D01*
X134577371Y-106066043D01*
X134620000Y-105963127D01*
X134662629Y-106066043D01*
X134814201Y-106292886D01*
X135007114Y-106485799D01*
X135233957Y-106637371D01*
X135486011Y-106741775D01*
X135753589Y-106795000D01*
X136026411Y-106795000D01*
X136293989Y-106741775D01*
X136546043Y-106637371D01*
X136772886Y-106485799D01*
X136965799Y-106292886D01*
X137117371Y-106066043D01*
X137160000Y-105963127D01*
X137202629Y-106066043D01*
X137354201Y-106292886D01*
X137547114Y-106485799D01*
X137773957Y-106637371D01*
X138026011Y-106741775D01*
X138293589Y-106795000D01*
X138566411Y-106795000D01*
X138833989Y-106741775D01*
X139086043Y-106637371D01*
X139312886Y-106485799D01*
X139505799Y-106292886D01*
X139657371Y-106066043D01*
X139700000Y-105963127D01*
X139742629Y-106066043D01*
X139894201Y-106292886D01*
X140087114Y-106485799D01*
X140313957Y-106637371D01*
X140566011Y-106741775D01*
X140833589Y-106795000D01*
X141106411Y-106795000D01*
X141373989Y-106741775D01*
X141626043Y-106637371D01*
X141852886Y-106485799D01*
X142045799Y-106292886D01*
X142197371Y-106066043D01*
X142301775Y-105813989D01*
X142355000Y-105546411D01*
X142355000Y-105273589D01*
X142301775Y-105006011D01*
X142197371Y-104753957D01*
X142045799Y-104527114D01*
X141852886Y-104334201D01*
X141626043Y-104182629D01*
X141373989Y-104078225D01*
X141106411Y-104025000D01*
X140833589Y-104025000D01*
X140566011Y-104078225D01*
X140313957Y-104182629D01*
X140087114Y-104334201D01*
X139894201Y-104527114D01*
X139742629Y-104753957D01*
X139700000Y-104856873D01*
X139657371Y-104753957D01*
X139505799Y-104527114D01*
X139312886Y-104334201D01*
X139086043Y-104182629D01*
X138833989Y-104078225D01*
X138566411Y-104025000D01*
X138293589Y-104025000D01*
X138026011Y-104078225D01*
X137773957Y-104182629D01*
X137547114Y-104334201D01*
X137354201Y-104527114D01*
X137202629Y-104753957D01*
X137160000Y-104856873D01*
X137117371Y-104753957D01*
X136965799Y-104527114D01*
X136772886Y-104334201D01*
X136546043Y-104182629D01*
X136293989Y-104078225D01*
X136026411Y-104025000D01*
X135753589Y-104025000D01*
X135486011Y-104078225D01*
X135233957Y-104182629D01*
X135007114Y-104334201D01*
X134814201Y-104527114D01*
X134662629Y-104753957D01*
X134620000Y-104856873D01*
X134577371Y-104753957D01*
X134425799Y-104527114D01*
X134232886Y-104334201D01*
X134006043Y-104182629D01*
X133753989Y-104078225D01*
X133486411Y-104025000D01*
X133213589Y-104025000D01*
X132946011Y-104078225D01*
X132693957Y-104182629D01*
X132467114Y-104334201D01*
X132274201Y-104527114D01*
X132122629Y-104753957D01*
X132080000Y-104856873D01*
X132037371Y-104753957D01*
X131885799Y-104527114D01*
X131692886Y-104334201D01*
X131466043Y-104182629D01*
X131213989Y-104078225D01*
X130946411Y-104025000D01*
X130673589Y-104025000D01*
X130406011Y-104078225D01*
X130153957Y-104182629D01*
X129927114Y-104334201D01*
X129734201Y-104527114D01*
X129582629Y-104753957D01*
X129540000Y-104856873D01*
X129497371Y-104753957D01*
X129345799Y-104527114D01*
X129152886Y-104334201D01*
X128926043Y-104182629D01*
X128673989Y-104078225D01*
X128406411Y-104025000D01*
X128133589Y-104025000D01*
X127866011Y-104078225D01*
X127613957Y-104182629D01*
X127387114Y-104334201D01*
X127194201Y-104527114D01*
X127042629Y-104753957D01*
X126938225Y-105006011D01*
X126885000Y-105273589D01*
X70510000Y-105273589D01*
X70510000Y-92359419D01*
X78075000Y-92359419D01*
X78075000Y-92740581D01*
X78149361Y-93114419D01*
X78295225Y-93466566D01*
X78506987Y-93783491D01*
X78776509Y-94053013D01*
X79093434Y-94264775D01*
X79445581Y-94410639D01*
X79819419Y-94485000D01*
X80057026Y-94485000D01*
X81453550Y-95881525D01*
X81495356Y-95932466D01*
X81698636Y-96099293D01*
X81930557Y-96223258D01*
X82182205Y-96299594D01*
X82443911Y-96325370D01*
X82509490Y-96318911D01*
X99932407Y-96318911D01*
X100100420Y-96486924D01*
X100417345Y-96698686D01*
X100769492Y-96844550D01*
X101143330Y-96918911D01*
X101524492Y-96918911D01*
X101898330Y-96844550D01*
X102250477Y-96698686D01*
X102567402Y-96486924D01*
X102836924Y-96217402D01*
X103048686Y-95900477D01*
X103194550Y-95548330D01*
X103268911Y-95174492D01*
X103268911Y-94793330D01*
X103194550Y-94419492D01*
X103048686Y-94067345D01*
X102836924Y-93750420D01*
X102811917Y-93725413D01*
X127314192Y-93725413D01*
X127409956Y-93989814D01*
X127699571Y-94130704D01*
X128011108Y-94212384D01*
X128332595Y-94231718D01*
X128651675Y-94187961D01*
X128956088Y-94082795D01*
X129130044Y-93989814D01*
X129225808Y-93725413D01*
X128270000Y-92769605D01*
X127314192Y-93725413D01*
X102811917Y-93725413D01*
X102567402Y-93480898D01*
X102250477Y-93269136D01*
X101898330Y-93123272D01*
X101524492Y-93048911D01*
X101143330Y-93048911D01*
X100769492Y-93123272D01*
X100417345Y-93269136D01*
X100100420Y-93480898D01*
X99932407Y-93648911D01*
X82996886Y-93648911D01*
X82000570Y-92652595D01*
X126628282Y-92652595D01*
X126672039Y-92971675D01*
X126777205Y-93276088D01*
X126870186Y-93450044D01*
X127134587Y-93545808D01*
X128090395Y-92590000D01*
X128449605Y-92590000D01*
X129405413Y-93545808D01*
X129669814Y-93450044D01*
X129810704Y-93160429D01*
X129892384Y-92848892D01*
X129911718Y-92527405D01*
X129887761Y-92352702D01*
X143966903Y-92352702D01*
X144038486Y-92596671D01*
X144293996Y-92717571D01*
X144568184Y-92786300D01*
X144850512Y-92800217D01*
X145130130Y-92758787D01*
X145396292Y-92663603D01*
X145521514Y-92596671D01*
X145593097Y-92352702D01*
X144780000Y-91539605D01*
X143966903Y-92352702D01*
X129887761Y-92352702D01*
X129867961Y-92208325D01*
X129762795Y-91903912D01*
X129669814Y-91729956D01*
X129405413Y-91634192D01*
X128449605Y-92590000D01*
X128090395Y-92590000D01*
X127134587Y-91634192D01*
X126870186Y-91729956D01*
X126729296Y-92019571D01*
X126647616Y-92331108D01*
X126628282Y-92652595D01*
X82000570Y-92652595D01*
X81945000Y-92597026D01*
X81945000Y-92359419D01*
X81870639Y-91985581D01*
X81724775Y-91633434D01*
X81605274Y-91454587D01*
X127314192Y-91454587D01*
X128270000Y-92410395D01*
X129225808Y-91454587D01*
X129217089Y-91430512D01*
X143339783Y-91430512D01*
X143381213Y-91710130D01*
X143476397Y-91976292D01*
X143543329Y-92101514D01*
X143787298Y-92173097D01*
X144600395Y-91360000D01*
X144959605Y-91360000D01*
X145772702Y-92173097D01*
X146016671Y-92101514D01*
X146137571Y-91846004D01*
X146155787Y-91773329D01*
X149837284Y-91773329D01*
X149869953Y-91881044D01*
X149980208Y-92118392D01*
X150134649Y-92329670D01*
X150327340Y-92506759D01*
X150550877Y-92642853D01*
X150796670Y-92732722D01*
X151003000Y-92610201D01*
X151003000Y-91567000D01*
X151257000Y-91567000D01*
X151257000Y-92610201D01*
X151463330Y-92732722D01*
X151709123Y-92642853D01*
X151932660Y-92506759D01*
X152125351Y-92329670D01*
X152279792Y-92118392D01*
X152390047Y-91881044D01*
X152422716Y-91773329D01*
X152299374Y-91567000D01*
X151257000Y-91567000D01*
X151003000Y-91567000D01*
X149960626Y-91567000D01*
X149837284Y-91773329D01*
X146155787Y-91773329D01*
X146206300Y-91571816D01*
X146220217Y-91289488D01*
X146193130Y-91106671D01*
X149837284Y-91106671D01*
X149960626Y-91313000D01*
X151003000Y-91313000D01*
X151003000Y-90269799D01*
X151257000Y-90269799D01*
X151257000Y-91313000D01*
X152299374Y-91313000D01*
X152422716Y-91106671D01*
X152390047Y-90998956D01*
X152279792Y-90761608D01*
X152125351Y-90550330D01*
X151932660Y-90373241D01*
X151709123Y-90237147D01*
X151463330Y-90147278D01*
X151257000Y-90269799D01*
X151003000Y-90269799D01*
X150796670Y-90147278D01*
X150550877Y-90237147D01*
X150327340Y-90373241D01*
X150134649Y-90550330D01*
X149980208Y-90761608D01*
X149869953Y-90998956D01*
X149837284Y-91106671D01*
X146193130Y-91106671D01*
X146178787Y-91009870D01*
X146083603Y-90743708D01*
X146016671Y-90618486D01*
X145772702Y-90546903D01*
X144959605Y-91360000D01*
X144600395Y-91360000D01*
X143787298Y-90546903D01*
X143543329Y-90618486D01*
X143422429Y-90873996D01*
X143353700Y-91148184D01*
X143339783Y-91430512D01*
X129217089Y-91430512D01*
X129130044Y-91190186D01*
X128840429Y-91049296D01*
X128528892Y-90967616D01*
X128207405Y-90948282D01*
X127888325Y-90992039D01*
X127583912Y-91097205D01*
X127409956Y-91190186D01*
X127314192Y-91454587D01*
X81605274Y-91454587D01*
X81513013Y-91316509D01*
X81243491Y-91046987D01*
X80926566Y-90835225D01*
X80574419Y-90689361D01*
X80200581Y-90615000D01*
X79819419Y-90615000D01*
X79445581Y-90689361D01*
X79093434Y-90835225D01*
X78776509Y-91046987D01*
X78506987Y-91316509D01*
X78295225Y-91633434D01*
X78149361Y-91985581D01*
X78075000Y-92359419D01*
X70510000Y-92359419D01*
X70510000Y-90367298D01*
X143966903Y-90367298D01*
X144780000Y-91180395D01*
X145593097Y-90367298D01*
X145521514Y-90123329D01*
X145266004Y-90002429D01*
X144991816Y-89933700D01*
X144709488Y-89919783D01*
X144429870Y-89961213D01*
X144163708Y-90056397D01*
X144038486Y-90123329D01*
X143966903Y-90367298D01*
X70510000Y-90367298D01*
X70510000Y-87359419D01*
X78075000Y-87359419D01*
X78075000Y-87740581D01*
X78149361Y-88114419D01*
X78295225Y-88466566D01*
X78506987Y-88783491D01*
X78776509Y-89053013D01*
X79093434Y-89264775D01*
X79445581Y-89410639D01*
X79819419Y-89485000D01*
X80200581Y-89485000D01*
X80574419Y-89410639D01*
X80926566Y-89264775D01*
X81243491Y-89053013D01*
X81320703Y-88975801D01*
X92813804Y-88975801D01*
X92813804Y-89200307D01*
X93528815Y-89919663D01*
X93625506Y-89999016D01*
X93735820Y-90057980D01*
X93855519Y-90094289D01*
X93980000Y-90106550D01*
X94104481Y-90094289D01*
X94224180Y-90057980D01*
X94334494Y-89999016D01*
X94431185Y-89919663D01*
X95146196Y-89200307D01*
X95146196Y-88975801D01*
X93980000Y-87809605D01*
X92813804Y-88975801D01*
X81320703Y-88975801D01*
X81513013Y-88783491D01*
X81724775Y-88466566D01*
X81870639Y-88114419D01*
X81945000Y-87740581D01*
X81945000Y-87630000D01*
X91503450Y-87630000D01*
X91515711Y-87754481D01*
X91552020Y-87874180D01*
X91610984Y-87984494D01*
X91690337Y-88081185D01*
X92409693Y-88796196D01*
X92634199Y-88796196D01*
X93800395Y-87630000D01*
X94159605Y-87630000D01*
X95325801Y-88796196D01*
X95550307Y-88796196D01*
X96269663Y-88081185D01*
X96349016Y-87984494D01*
X96407980Y-87874180D01*
X96444289Y-87754481D01*
X96456550Y-87630000D01*
X96444289Y-87505519D01*
X96424239Y-87439419D01*
X106752821Y-87439419D01*
X106752821Y-87820581D01*
X106827182Y-88194419D01*
X106973046Y-88546566D01*
X107184808Y-88863491D01*
X107454330Y-89133013D01*
X107771255Y-89344775D01*
X108123402Y-89490639D01*
X108497240Y-89565000D01*
X108878402Y-89565000D01*
X109252240Y-89490639D01*
X109604387Y-89344775D01*
X109921312Y-89133013D01*
X110190834Y-88863491D01*
X110402596Y-88546566D01*
X110548460Y-88194419D01*
X110622821Y-87820581D01*
X110622821Y-87582974D01*
X111780796Y-86425000D01*
X127325047Y-86425000D01*
X127495537Y-86538918D01*
X127793088Y-86662168D01*
X128108967Y-86725000D01*
X128431033Y-86725000D01*
X128746912Y-86662168D01*
X129044463Y-86538918D01*
X129214953Y-86425000D01*
X142957026Y-86425000D01*
X143463467Y-86931441D01*
X143508320Y-87039727D01*
X143665363Y-87274759D01*
X143865241Y-87474637D01*
X144100273Y-87631680D01*
X144361426Y-87739853D01*
X144638665Y-87795000D01*
X144921335Y-87795000D01*
X145198574Y-87739853D01*
X145459727Y-87631680D01*
X145694759Y-87474637D01*
X145894637Y-87274759D01*
X146051680Y-87039727D01*
X146159853Y-86778574D01*
X146215000Y-86501335D01*
X146215000Y-86218665D01*
X146159853Y-85941426D01*
X146051680Y-85680273D01*
X145894637Y-85445241D01*
X145694759Y-85245363D01*
X145459727Y-85088320D01*
X145351441Y-85043467D01*
X144500366Y-84192391D01*
X144458555Y-84141445D01*
X144255275Y-83974618D01*
X144023354Y-83850653D01*
X143771706Y-83774317D01*
X143575579Y-83755000D01*
X143510000Y-83748541D01*
X143444421Y-83755000D01*
X129214953Y-83755000D01*
X129044463Y-83641082D01*
X128746912Y-83517832D01*
X128431033Y-83455000D01*
X128108967Y-83455000D01*
X127793088Y-83517832D01*
X127495537Y-83641082D01*
X127325047Y-83755000D01*
X111293396Y-83755000D01*
X111227820Y-83748541D01*
X111162244Y-83755000D01*
X111162242Y-83755000D01*
X110966115Y-83774317D01*
X110714467Y-83850653D01*
X110482546Y-83974618D01*
X110279266Y-84141445D01*
X110237460Y-84192386D01*
X108734847Y-85695000D01*
X108497240Y-85695000D01*
X108123402Y-85769361D01*
X107771255Y-85915225D01*
X107454330Y-86126987D01*
X107184808Y-86396509D01*
X106973046Y-86713434D01*
X106827182Y-87065581D01*
X106752821Y-87439419D01*
X96424239Y-87439419D01*
X96407980Y-87385820D01*
X96349016Y-87275506D01*
X96269663Y-87178815D01*
X95550307Y-86463804D01*
X95325801Y-86463804D01*
X94159605Y-87630000D01*
X93800395Y-87630000D01*
X92634199Y-86463804D01*
X92409693Y-86463804D01*
X91690337Y-87178815D01*
X91610984Y-87275506D01*
X91552020Y-87385820D01*
X91515711Y-87505519D01*
X91503450Y-87630000D01*
X81945000Y-87630000D01*
X81945000Y-87359419D01*
X81870639Y-86985581D01*
X81724775Y-86633434D01*
X81513013Y-86316509D01*
X81256197Y-86059693D01*
X92813804Y-86059693D01*
X92813804Y-86284199D01*
X93980000Y-87450395D01*
X95146196Y-86284199D01*
X95146196Y-86059693D01*
X94431185Y-85340337D01*
X94334494Y-85260984D01*
X94224180Y-85202020D01*
X94104481Y-85165711D01*
X93980000Y-85153450D01*
X93855519Y-85165711D01*
X93735820Y-85202020D01*
X93625506Y-85260984D01*
X93528815Y-85340337D01*
X92813804Y-86059693D01*
X81256197Y-86059693D01*
X81243491Y-86046987D01*
X80926566Y-85835225D01*
X80574419Y-85689361D01*
X80200581Y-85615000D01*
X79819419Y-85615000D01*
X79445581Y-85689361D01*
X79093434Y-85835225D01*
X78776509Y-86046987D01*
X78506987Y-86316509D01*
X78295225Y-86633434D01*
X78149361Y-86985581D01*
X78075000Y-87359419D01*
X70510000Y-87359419D01*
X70510000Y-81250000D01*
X78071928Y-81250000D01*
X78071928Y-83850000D01*
X78084188Y-83974482D01*
X78120498Y-84094180D01*
X78179463Y-84204494D01*
X78258815Y-84301185D01*
X78355506Y-84380537D01*
X78465820Y-84439502D01*
X78585518Y-84475812D01*
X78710000Y-84488072D01*
X81310000Y-84488072D01*
X81434482Y-84475812D01*
X81554180Y-84439502D01*
X81664494Y-84380537D01*
X81761185Y-84301185D01*
X81840537Y-84204494D01*
X81899502Y-84094180D01*
X81935812Y-83974482D01*
X81948072Y-83850000D01*
X81948072Y-82499903D01*
X82836887Y-81611089D01*
X99932407Y-81611089D01*
X100100420Y-81779102D01*
X100417345Y-81990864D01*
X100769492Y-82136728D01*
X101143330Y-82211089D01*
X101524492Y-82211089D01*
X101898330Y-82136728D01*
X102250477Y-81990864D01*
X102567402Y-81779102D01*
X102836924Y-81509580D01*
X103048686Y-81192655D01*
X103194550Y-80840508D01*
X103268911Y-80466670D01*
X103268911Y-80085508D01*
X103194550Y-79711670D01*
X103048686Y-79359523D01*
X102836924Y-79042598D01*
X102567402Y-78773076D01*
X102250477Y-78561314D01*
X101898330Y-78415450D01*
X101524492Y-78341089D01*
X101143330Y-78341089D01*
X100769492Y-78415450D01*
X100417345Y-78561314D01*
X100100420Y-78773076D01*
X99932407Y-78941089D01*
X82349490Y-78941089D01*
X82283911Y-78934630D01*
X82218332Y-78941089D01*
X82022205Y-78960406D01*
X81770557Y-79036742D01*
X81597864Y-79129049D01*
X81538636Y-79160707D01*
X81440801Y-79240998D01*
X81335356Y-79327534D01*
X81293554Y-79378470D01*
X80060097Y-80611928D01*
X78710000Y-80611928D01*
X78585518Y-80624188D01*
X78465820Y-80660498D01*
X78355506Y-80719463D01*
X78258815Y-80798815D01*
X78179463Y-80895506D01*
X78120498Y-81005820D01*
X78084188Y-81125518D01*
X78071928Y-81250000D01*
X70510000Y-81250000D01*
X70510000Y-77740000D01*
X148269428Y-77740000D01*
X148269428Y-79740000D01*
X148281688Y-79864482D01*
X148317998Y-79984180D01*
X148376963Y-80094494D01*
X148456315Y-80191185D01*
X148553006Y-80270537D01*
X148663320Y-80329502D01*
X148783018Y-80365812D01*
X148907500Y-80378072D01*
X149205674Y-80378072D01*
X149225026Y-80414276D01*
X149296201Y-80501002D01*
X149320000Y-80530001D01*
X149348998Y-80553799D01*
X154396201Y-85601003D01*
X154419999Y-85630001D01*
X154535724Y-85724974D01*
X154667753Y-85795546D01*
X154811014Y-85839003D01*
X154922667Y-85850000D01*
X154922676Y-85850000D01*
X154959999Y-85853676D01*
X154997322Y-85850000D01*
X157652225Y-85850000D01*
X157713038Y-85941013D01*
X157898987Y-86126962D01*
X157990001Y-86187775D01*
X157990000Y-90342225D01*
X157898987Y-90403038D01*
X157713038Y-90588987D01*
X157566939Y-90807641D01*
X157466304Y-91050595D01*
X157415000Y-91308514D01*
X157415000Y-91571486D01*
X157466304Y-91829405D01*
X157566939Y-92072359D01*
X157713038Y-92291013D01*
X157898987Y-92476962D01*
X158117641Y-92623061D01*
X158360595Y-92723696D01*
X158618514Y-92775000D01*
X158881486Y-92775000D01*
X159139405Y-92723696D01*
X159382359Y-92623061D01*
X159601013Y-92476962D01*
X159786962Y-92291013D01*
X159933061Y-92072359D01*
X160033696Y-91829405D01*
X160038602Y-91804740D01*
X181388964Y-91804740D01*
X181437606Y-91965107D01*
X181567764Y-92236414D01*
X181748351Y-92477116D01*
X181972427Y-92677962D01*
X182231380Y-92831234D01*
X182515259Y-92931041D01*
X182753000Y-92810992D01*
X182753000Y-91567000D01*
X183007000Y-91567000D01*
X183007000Y-92810992D01*
X183244741Y-92931041D01*
X183528620Y-92831234D01*
X183787573Y-92677962D01*
X184011649Y-92477116D01*
X184192236Y-92236414D01*
X184322394Y-91965107D01*
X184371036Y-91804740D01*
X184250378Y-91567000D01*
X183007000Y-91567000D01*
X182753000Y-91567000D01*
X181509622Y-91567000D01*
X181388964Y-91804740D01*
X160038602Y-91804740D01*
X160085000Y-91571486D01*
X160085000Y-91308514D01*
X160038603Y-91075260D01*
X181388964Y-91075260D01*
X181509622Y-91313000D01*
X182753000Y-91313000D01*
X182753000Y-90069008D01*
X183007000Y-90069008D01*
X183007000Y-91313000D01*
X184250378Y-91313000D01*
X184371036Y-91075260D01*
X184322394Y-90914893D01*
X184192236Y-90643586D01*
X184011649Y-90402884D01*
X183787573Y-90202038D01*
X183528620Y-90048766D01*
X183244741Y-89948959D01*
X183007000Y-90069008D01*
X182753000Y-90069008D01*
X182515259Y-89948959D01*
X182231380Y-90048766D01*
X181972427Y-90202038D01*
X181748351Y-90402884D01*
X181567764Y-90643586D01*
X181437606Y-90914893D01*
X181388964Y-91075260D01*
X160038603Y-91075260D01*
X160033696Y-91050595D01*
X159933061Y-90807641D01*
X159786962Y-90588987D01*
X159601013Y-90403038D01*
X159510000Y-90342225D01*
X159510000Y-89979764D01*
X175859841Y-89979764D01*
X175907148Y-90203348D01*
X176128516Y-90304237D01*
X176365313Y-90360000D01*
X176608438Y-90368495D01*
X176848549Y-90329395D01*
X177076418Y-90244202D01*
X177152852Y-90203348D01*
X177200159Y-89979764D01*
X176530000Y-89309605D01*
X175859841Y-89979764D01*
X159510000Y-89979764D01*
X159510000Y-86187775D01*
X159601013Y-86126962D01*
X159786962Y-85941013D01*
X159933061Y-85722359D01*
X160033696Y-85479405D01*
X160085000Y-85221486D01*
X160085000Y-84958514D01*
X160058442Y-84824999D01*
X164217025Y-84824999D01*
X165333038Y-85941013D01*
X165518987Y-86126962D01*
X165518990Y-86126964D01*
X167919639Y-88527614D01*
X167961445Y-88578555D01*
X168164725Y-88745382D01*
X168396646Y-88869347D01*
X168648294Y-88945683D01*
X168844421Y-88965000D01*
X168844423Y-88965000D01*
X168909999Y-88971459D01*
X168975575Y-88965000D01*
X175300074Y-88965000D01*
X175300000Y-88965313D01*
X175291505Y-89208438D01*
X175330605Y-89448549D01*
X175415798Y-89676418D01*
X175456652Y-89752852D01*
X175680236Y-89800159D01*
X176350395Y-89130000D01*
X176336253Y-89115858D01*
X176485076Y-88967034D01*
X176530000Y-88971459D01*
X176574924Y-88967034D01*
X176723748Y-89115858D01*
X176709605Y-89130000D01*
X177379764Y-89800159D01*
X177603348Y-89752852D01*
X177704237Y-89531484D01*
X177760000Y-89294687D01*
X177768495Y-89051562D01*
X177729395Y-88811451D01*
X177644202Y-88583582D01*
X177603348Y-88507148D01*
X177551745Y-88496229D01*
X182956705Y-83091270D01*
X182975000Y-83093072D01*
X183890000Y-83093072D01*
X183890001Y-86099412D01*
X183883541Y-86165000D01*
X183909317Y-86426705D01*
X183985654Y-86678354D01*
X184095963Y-86884726D01*
X184109619Y-86910275D01*
X184276446Y-87113555D01*
X184327387Y-87155361D01*
X188961928Y-91789903D01*
X188961928Y-92340000D01*
X188974188Y-92464482D01*
X189010498Y-92584180D01*
X189069463Y-92694494D01*
X189148815Y-92791185D01*
X189168096Y-92807008D01*
X189184317Y-92971706D01*
X189260653Y-93223354D01*
X189384619Y-93455275D01*
X189551446Y-93658555D01*
X189602387Y-93700361D01*
X202535000Y-106632975D01*
X202535000Y-106870581D01*
X202609361Y-107244419D01*
X202755225Y-107596566D01*
X202966987Y-107913491D01*
X203236509Y-108183013D01*
X203553434Y-108394775D01*
X203905581Y-108540639D01*
X204279419Y-108615000D01*
X204660581Y-108615000D01*
X205034419Y-108540639D01*
X205386566Y-108394775D01*
X205703491Y-108183013D01*
X205973013Y-107913491D01*
X206184775Y-107596566D01*
X206330639Y-107244419D01*
X206405000Y-106870581D01*
X206405000Y-106489419D01*
X206330639Y-106115581D01*
X206265787Y-105959014D01*
X210061003Y-102163799D01*
X210090001Y-102140001D01*
X210116332Y-102107917D01*
X210184974Y-102024277D01*
X210255546Y-101892247D01*
X210299003Y-101748986D01*
X210310000Y-101637333D01*
X210310000Y-101637323D01*
X210313676Y-101600000D01*
X210310000Y-101562677D01*
X210310000Y-90021828D01*
X210413762Y-89952497D01*
X210602497Y-89763762D01*
X210750785Y-89541833D01*
X210852928Y-89295239D01*
X210905000Y-89033456D01*
X210905000Y-88766544D01*
X210852928Y-88504761D01*
X210750785Y-88258167D01*
X210602497Y-88036238D01*
X210413762Y-87847503D01*
X210191833Y-87699215D01*
X209945239Y-87597072D01*
X209683456Y-87545000D01*
X209416544Y-87545000D01*
X209154761Y-87597072D01*
X208908167Y-87699215D01*
X208686238Y-87847503D01*
X208497503Y-88036238D01*
X208349215Y-88258167D01*
X208247072Y-88504761D01*
X208195000Y-88766544D01*
X208195000Y-89033456D01*
X208247072Y-89295239D01*
X208349215Y-89541833D01*
X208497503Y-89763762D01*
X208686238Y-89952497D01*
X208790000Y-90021829D01*
X208790001Y-101285197D01*
X205190986Y-104884213D01*
X205034419Y-104819361D01*
X204660581Y-104745000D01*
X204422975Y-104745000D01*
X192036270Y-92358296D01*
X192038072Y-92340000D01*
X192038072Y-90540000D01*
X192025812Y-90415518D01*
X191989502Y-90295820D01*
X191930537Y-90185506D01*
X191851185Y-90088815D01*
X191754494Y-90009463D01*
X191644180Y-89950498D01*
X191524482Y-89914188D01*
X191400000Y-89901928D01*
X190849903Y-89901928D01*
X186560000Y-85612026D01*
X186560000Y-83090921D01*
X186639250Y-83090000D01*
X186798000Y-82931250D01*
X186798000Y-80282000D01*
X186778000Y-80282000D01*
X186778000Y-80028000D01*
X186798000Y-80028000D01*
X186798000Y-77378750D01*
X187052000Y-77378750D01*
X187052000Y-80028000D01*
X187072000Y-80028000D01*
X187072000Y-80282000D01*
X187052000Y-80282000D01*
X187052000Y-82931250D01*
X187210750Y-83090000D01*
X187475000Y-83093072D01*
X187599482Y-83080812D01*
X187719180Y-83044502D01*
X187775000Y-83014665D01*
X187830820Y-83044502D01*
X187870842Y-83056642D01*
X187875997Y-83108985D01*
X187919454Y-83252246D01*
X187990026Y-83384276D01*
X188023252Y-83424761D01*
X188084999Y-83500001D01*
X188114003Y-83523804D01*
X191461201Y-86871003D01*
X191484999Y-86900001D01*
X191513997Y-86923799D01*
X191600723Y-86994974D01*
X191727271Y-87062616D01*
X191732753Y-87065546D01*
X191876014Y-87109003D01*
X191987667Y-87120000D01*
X191987676Y-87120000D01*
X192024999Y-87123676D01*
X192062322Y-87120000D01*
X205888172Y-87120000D01*
X205957503Y-87223762D01*
X206146238Y-87412497D01*
X206368167Y-87560785D01*
X206614761Y-87662928D01*
X206876544Y-87715000D01*
X207143456Y-87715000D01*
X207405239Y-87662928D01*
X207651833Y-87560785D01*
X207873762Y-87412497D01*
X208062497Y-87223762D01*
X208210785Y-87001833D01*
X208312928Y-86755239D01*
X208365000Y-86493456D01*
X208365000Y-86226544D01*
X208312928Y-85964761D01*
X208210785Y-85718167D01*
X208062497Y-85496238D01*
X207873762Y-85307503D01*
X207651833Y-85159215D01*
X207405239Y-85057072D01*
X207143456Y-85005000D01*
X206876544Y-85005000D01*
X206614761Y-85057072D01*
X206368167Y-85159215D01*
X206146238Y-85307503D01*
X205957503Y-85496238D01*
X205888172Y-85600000D01*
X192339802Y-85600000D01*
X189832873Y-83093072D01*
X190875000Y-83093072D01*
X190999482Y-83080812D01*
X191119180Y-83044502D01*
X191229494Y-82985537D01*
X191326185Y-82906185D01*
X191405537Y-82809494D01*
X191464502Y-82699180D01*
X191500812Y-82579482D01*
X191513072Y-82455000D01*
X191513072Y-77855000D01*
X191500812Y-77730518D01*
X191464502Y-77610820D01*
X191405537Y-77500506D01*
X191326185Y-77403815D01*
X191229494Y-77324463D01*
X191119180Y-77265498D01*
X190999482Y-77229188D01*
X190875000Y-77216928D01*
X189775000Y-77216928D01*
X189650518Y-77229188D01*
X189530820Y-77265498D01*
X189475000Y-77295335D01*
X189419180Y-77265498D01*
X189299482Y-77229188D01*
X189175000Y-77216928D01*
X188075000Y-77216928D01*
X187950518Y-77229188D01*
X187830820Y-77265498D01*
X187775000Y-77295335D01*
X187719180Y-77265498D01*
X187599482Y-77229188D01*
X187475000Y-77216928D01*
X187210750Y-77220000D01*
X187052000Y-77378750D01*
X186798000Y-77378750D01*
X186639250Y-77220000D01*
X186375000Y-77216928D01*
X186250518Y-77229188D01*
X186130820Y-77265498D01*
X186075000Y-77295335D01*
X186019180Y-77265498D01*
X185899482Y-77229188D01*
X185775000Y-77216928D01*
X184675000Y-77216928D01*
X184550518Y-77229188D01*
X184430820Y-77265498D01*
X184375000Y-77295335D01*
X184319180Y-77265498D01*
X184199482Y-77229188D01*
X184075000Y-77216928D01*
X182975000Y-77216928D01*
X182850518Y-77229188D01*
X182730820Y-77265498D01*
X182620506Y-77324463D01*
X182523815Y-77403815D01*
X182444463Y-77500506D01*
X182385498Y-77610820D01*
X182349188Y-77730518D01*
X182336928Y-77855000D01*
X182336928Y-79545719D01*
X182285653Y-79641647D01*
X182209317Y-79893295D01*
X182190808Y-80081216D01*
X175977026Y-86295000D01*
X169462975Y-86295000D01*
X167406964Y-84238990D01*
X167406962Y-84238987D01*
X167221013Y-84053038D01*
X165760365Y-82592391D01*
X165718554Y-82541444D01*
X165515274Y-82374617D01*
X165283353Y-82250652D01*
X165031705Y-82174316D01*
X164835578Y-82154999D01*
X164769999Y-82148540D01*
X164704420Y-82154999D01*
X157575630Y-82154999D01*
X155636103Y-80215472D01*
X155826235Y-80113845D01*
X156067963Y-79915463D01*
X156266345Y-79673734D01*
X156413755Y-79397948D01*
X156504530Y-79098703D01*
X156527500Y-78865485D01*
X156527500Y-78614514D01*
X156504530Y-78381296D01*
X156413755Y-78082051D01*
X156266345Y-77806265D01*
X156067963Y-77564537D01*
X155826234Y-77366155D01*
X155550448Y-77218745D01*
X155251203Y-77127970D01*
X154940000Y-77097319D01*
X154628796Y-77127970D01*
X154329551Y-77218745D01*
X154053765Y-77366155D01*
X153812037Y-77564537D01*
X153670000Y-77737609D01*
X153527963Y-77564537D01*
X153286234Y-77366155D01*
X153010448Y-77218745D01*
X152711203Y-77127970D01*
X152400000Y-77097319D01*
X152088796Y-77127970D01*
X151789551Y-77218745D01*
X151513765Y-77366155D01*
X151387905Y-77469446D01*
X151343037Y-77385506D01*
X151263685Y-77288815D01*
X151166994Y-77209463D01*
X151056680Y-77150498D01*
X150936982Y-77114188D01*
X150812500Y-77101928D01*
X148907500Y-77101928D01*
X148783018Y-77114188D01*
X148663320Y-77150498D01*
X148553006Y-77209463D01*
X148456315Y-77288815D01*
X148376963Y-77385506D01*
X148317998Y-77495820D01*
X148281688Y-77615518D01*
X148269428Y-77740000D01*
X70510000Y-77740000D01*
X70510000Y-75705000D01*
X180886928Y-75705000D01*
X180899188Y-75829482D01*
X180935498Y-75949180D01*
X180994463Y-76059494D01*
X181073815Y-76156185D01*
X181170506Y-76235537D01*
X181280820Y-76294502D01*
X181400518Y-76330812D01*
X181525000Y-76343072D01*
X186639250Y-76340000D01*
X186798000Y-76181250D01*
X186798000Y-71132000D01*
X187052000Y-71132000D01*
X187052000Y-76181250D01*
X187210750Y-76340000D01*
X192325000Y-76343072D01*
X192449482Y-76330812D01*
X192569180Y-76294502D01*
X192679494Y-76235537D01*
X192776185Y-76156185D01*
X192855537Y-76059494D01*
X192914502Y-75949180D01*
X192950812Y-75829482D01*
X192963072Y-75705000D01*
X192962442Y-74798514D01*
X200595000Y-74798514D01*
X200595000Y-75061486D01*
X200646304Y-75319405D01*
X200746939Y-75562359D01*
X200893038Y-75781013D01*
X201078987Y-75966962D01*
X201297641Y-76113061D01*
X201540595Y-76213696D01*
X201798514Y-76265000D01*
X202061486Y-76265000D01*
X202168844Y-76243645D01*
X208690112Y-82764914D01*
X208686238Y-82767503D01*
X208497503Y-82956238D01*
X208349215Y-83178167D01*
X208247072Y-83424761D01*
X208195000Y-83686544D01*
X208195000Y-83953456D01*
X208247072Y-84215239D01*
X208349215Y-84461833D01*
X208497503Y-84683762D01*
X208686238Y-84872497D01*
X208908167Y-85020785D01*
X209154761Y-85122928D01*
X209416544Y-85175000D01*
X209683456Y-85175000D01*
X209945239Y-85122928D01*
X210191833Y-85020785D01*
X210413762Y-84872497D01*
X210602497Y-84683762D01*
X210750785Y-84461833D01*
X210852928Y-84215239D01*
X210905000Y-83953456D01*
X210905000Y-83686544D01*
X210852928Y-83424761D01*
X210750785Y-83178167D01*
X210602497Y-82956238D01*
X210413762Y-82767503D01*
X210310000Y-82698172D01*
X210310000Y-82587322D01*
X210313676Y-82549999D01*
X210310000Y-82512676D01*
X210310000Y-82512667D01*
X210299003Y-82401014D01*
X210255546Y-82257753D01*
X210184974Y-82125724D01*
X210090001Y-82009999D01*
X210061003Y-81986201D01*
X203243645Y-75168844D01*
X203265000Y-75061486D01*
X203265000Y-74798514D01*
X203213696Y-74540595D01*
X203113061Y-74297641D01*
X202966962Y-74078987D01*
X202781013Y-73893038D01*
X202562359Y-73746939D01*
X202319405Y-73646304D01*
X202061486Y-73595000D01*
X201798514Y-73595000D01*
X201540595Y-73646304D01*
X201297641Y-73746939D01*
X201078987Y-73893038D01*
X200893038Y-74078987D01*
X200746939Y-74297641D01*
X200646304Y-74540595D01*
X200595000Y-74798514D01*
X192962442Y-74798514D01*
X192960000Y-71290750D01*
X192801250Y-71132000D01*
X187052000Y-71132000D01*
X186798000Y-71132000D01*
X181048750Y-71132000D01*
X180890000Y-71290750D01*
X180886928Y-75705000D01*
X70510000Y-75705000D01*
X70510000Y-73050000D01*
X175227581Y-73050000D01*
X175260000Y-73053193D01*
X175292419Y-73050000D01*
X175389383Y-73040450D01*
X175513793Y-73002710D01*
X175628450Y-72941425D01*
X175728948Y-72858948D01*
X175811425Y-72758450D01*
X175872710Y-72643793D01*
X175910450Y-72519383D01*
X175923193Y-72390000D01*
X175920000Y-72357581D01*
X175920000Y-66305000D01*
X180886928Y-66305000D01*
X180890000Y-70719250D01*
X181048750Y-70878000D01*
X186798000Y-70878000D01*
X186798000Y-65828750D01*
X187052000Y-65828750D01*
X187052000Y-70878000D01*
X192801250Y-70878000D01*
X192896102Y-70783148D01*
X210066457Y-70783148D01*
X210342627Y-71201118D01*
X210887557Y-71491649D01*
X211478696Y-71670287D01*
X212093328Y-71730168D01*
X212707831Y-71668990D01*
X213298592Y-71489103D01*
X213837373Y-71201118D01*
X214113543Y-70783148D01*
X212090000Y-68759605D01*
X210066457Y-70783148D01*
X192896102Y-70783148D01*
X192960000Y-70719250D01*
X192962140Y-67643330D01*
X200637278Y-67643330D01*
X200727147Y-67889123D01*
X200863241Y-68112660D01*
X201040330Y-68305351D01*
X201251608Y-68459792D01*
X201488956Y-68570047D01*
X201596671Y-68602716D01*
X201803000Y-68479374D01*
X201803000Y-67437000D01*
X202057000Y-67437000D01*
X202057000Y-68479374D01*
X202263329Y-68602716D01*
X202327254Y-68583328D01*
X208939832Y-68583328D01*
X209001010Y-69197831D01*
X209180897Y-69788592D01*
X209468882Y-70327373D01*
X209886852Y-70603543D01*
X211910395Y-68580000D01*
X212269605Y-68580000D01*
X214293148Y-70603543D01*
X214711118Y-70327373D01*
X215001649Y-69782443D01*
X215180287Y-69191304D01*
X215240168Y-68576672D01*
X215178990Y-67962169D01*
X214999103Y-67371408D01*
X214711118Y-66832627D01*
X214293148Y-66556457D01*
X212269605Y-68580000D01*
X211910395Y-68580000D01*
X209886852Y-66556457D01*
X209468882Y-66832627D01*
X209178351Y-67377557D01*
X208999713Y-67968696D01*
X208939832Y-68583328D01*
X202327254Y-68583328D01*
X202371044Y-68570047D01*
X202608392Y-68459792D01*
X202819670Y-68305351D01*
X202996759Y-68112660D01*
X203132853Y-67889123D01*
X203222722Y-67643330D01*
X203100201Y-67437000D01*
X202057000Y-67437000D01*
X201803000Y-67437000D01*
X200759799Y-67437000D01*
X200637278Y-67643330D01*
X192962140Y-67643330D01*
X192962604Y-66976670D01*
X200637278Y-66976670D01*
X200759799Y-67183000D01*
X201803000Y-67183000D01*
X201803000Y-66140626D01*
X202057000Y-66140626D01*
X202057000Y-67183000D01*
X203100201Y-67183000D01*
X203222722Y-66976670D01*
X203132853Y-66730877D01*
X202996759Y-66507340D01*
X202876837Y-66376852D01*
X210066457Y-66376852D01*
X212090000Y-68400395D01*
X214113543Y-66376852D01*
X213837373Y-65958882D01*
X213292443Y-65668351D01*
X212701304Y-65489713D01*
X212086672Y-65429832D01*
X211472169Y-65491010D01*
X210881408Y-65670897D01*
X210342627Y-65958882D01*
X210066457Y-66376852D01*
X202876837Y-66376852D01*
X202819670Y-66314649D01*
X202608392Y-66160208D01*
X202371044Y-66049953D01*
X202263329Y-66017284D01*
X202057000Y-66140626D01*
X201803000Y-66140626D01*
X201596671Y-66017284D01*
X201488956Y-66049953D01*
X201251608Y-66160208D01*
X201040330Y-66314649D01*
X200863241Y-66507340D01*
X200727147Y-66730877D01*
X200637278Y-66976670D01*
X192962604Y-66976670D01*
X192963072Y-66305000D01*
X192950812Y-66180518D01*
X192914502Y-66060820D01*
X192855537Y-65950506D01*
X192776185Y-65853815D01*
X192679494Y-65774463D01*
X192569180Y-65715498D01*
X192449482Y-65679188D01*
X192325000Y-65666928D01*
X187210750Y-65670000D01*
X187052000Y-65828750D01*
X186798000Y-65828750D01*
X186639250Y-65670000D01*
X181525000Y-65666928D01*
X181400518Y-65679188D01*
X181280820Y-65715498D01*
X181170506Y-65774463D01*
X181073815Y-65853815D01*
X180994463Y-65950506D01*
X180935498Y-66060820D01*
X180899188Y-66180518D01*
X180886928Y-66305000D01*
X175920000Y-66305000D01*
X175920000Y-64160000D01*
X216510001Y-64160000D01*
X216510001Y-64737572D01*
%TA.AperFunction,Conductor*%
D32*
G36*
X216510001Y-64737572D02*
G01*
X216510000Y-64737582D01*
X216510001Y-126340000D01*
X70510000Y-126340000D01*
X70510000Y-121611229D01*
X71795000Y-121611229D01*
X71795000Y-122228771D01*
X71915476Y-122834446D01*
X72151799Y-123404979D01*
X72494886Y-123918446D01*
X72931554Y-124355114D01*
X73445021Y-124698201D01*
X74015554Y-124934524D01*
X74621229Y-125055000D01*
X75238771Y-125055000D01*
X75844446Y-124934524D01*
X75994426Y-124872400D01*
X76479639Y-125357614D01*
X76521445Y-125408555D01*
X76724725Y-125575382D01*
X76956646Y-125699347D01*
X77208294Y-125775683D01*
X77404421Y-125795000D01*
X77404423Y-125795000D01*
X77469999Y-125801459D01*
X77535575Y-125795000D01*
X96454421Y-125795000D01*
X96520000Y-125801459D01*
X96585579Y-125795000D01*
X130744421Y-125795000D01*
X130810000Y-125801459D01*
X130875579Y-125795000D01*
X171384421Y-125795000D01*
X171450000Y-125801459D01*
X171515579Y-125795000D01*
X171711706Y-125775683D01*
X171963354Y-125699347D01*
X172195275Y-125575382D01*
X172398555Y-125408555D01*
X172440366Y-125357608D01*
X181610001Y-116187975D01*
X187609643Y-122187619D01*
X187651445Y-122238555D01*
X187854725Y-122405382D01*
X188086646Y-122529347D01*
X188338294Y-122605683D01*
X188600000Y-122631459D01*
X188665579Y-122625000D01*
X203068496Y-122625000D01*
X203236509Y-122793013D01*
X203553434Y-123004775D01*
X203905581Y-123150639D01*
X204279419Y-123225000D01*
X204660581Y-123225000D01*
X205034419Y-123150639D01*
X205386566Y-123004775D01*
X205703491Y-122793013D01*
X205973013Y-122523491D01*
X206184775Y-122206566D01*
X206330639Y-121854419D01*
X206405000Y-121480581D01*
X206405000Y-121099419D01*
X206330639Y-120725581D01*
X206184775Y-120373434D01*
X205973013Y-120056509D01*
X205703491Y-119786987D01*
X205386566Y-119575225D01*
X205034419Y-119429361D01*
X204660581Y-119355000D01*
X204279419Y-119355000D01*
X203905581Y-119429361D01*
X203553434Y-119575225D01*
X203236509Y-119786987D01*
X203068496Y-119955000D01*
X189152976Y-119955000D01*
X183222171Y-114024197D01*
X183182168Y-113823088D01*
X183058918Y-113525537D01*
X182879987Y-113257748D01*
X182652252Y-113030013D01*
X182384463Y-112851082D01*
X182086912Y-112727832D01*
X181771033Y-112665000D01*
X181448967Y-112665000D01*
X181133088Y-112727832D01*
X180835537Y-112851082D01*
X180567748Y-113030013D01*
X180340013Y-113257748D01*
X180161082Y-113525537D01*
X180037832Y-113823088D01*
X179997830Y-114024195D01*
X170897026Y-123125000D01*
X132145000Y-123125000D01*
X132145000Y-121339523D01*
X132274201Y-121532886D01*
X132467114Y-121725799D01*
X132693957Y-121877371D01*
X132946011Y-121981775D01*
X133213589Y-122035000D01*
X133486411Y-122035000D01*
X133753989Y-121981775D01*
X134006043Y-121877371D01*
X134232886Y-121725799D01*
X134425799Y-121532886D01*
X134577371Y-121306043D01*
X134620000Y-121203127D01*
X134662629Y-121306043D01*
X134814201Y-121532886D01*
X135007114Y-121725799D01*
X135233957Y-121877371D01*
X135486011Y-121981775D01*
X135753589Y-122035000D01*
X136026411Y-122035000D01*
X136293989Y-121981775D01*
X136546043Y-121877371D01*
X136772886Y-121725799D01*
X136965799Y-121532886D01*
X137117371Y-121306043D01*
X137160000Y-121203127D01*
X137202629Y-121306043D01*
X137354201Y-121532886D01*
X137547114Y-121725799D01*
X137773957Y-121877371D01*
X138026011Y-121981775D01*
X138293589Y-122035000D01*
X138566411Y-122035000D01*
X138833989Y-121981775D01*
X139086043Y-121877371D01*
X139312886Y-121725799D01*
X139505799Y-121532886D01*
X139657371Y-121306043D01*
X139700000Y-121203127D01*
X139742629Y-121306043D01*
X139894201Y-121532886D01*
X140087114Y-121725799D01*
X140313957Y-121877371D01*
X140566011Y-121981775D01*
X140833589Y-122035000D01*
X141106411Y-122035000D01*
X141373989Y-121981775D01*
X141626043Y-121877371D01*
X141852886Y-121725799D01*
X142045799Y-121532886D01*
X142197371Y-121306043D01*
X142301775Y-121053989D01*
X142355000Y-120786411D01*
X142355000Y-120513589D01*
X142301775Y-120246011D01*
X142197371Y-119993957D01*
X142045799Y-119767114D01*
X141852886Y-119574201D01*
X141626043Y-119422629D01*
X141373989Y-119318225D01*
X141106411Y-119265000D01*
X140833589Y-119265000D01*
X140566011Y-119318225D01*
X140313957Y-119422629D01*
X140087114Y-119574201D01*
X139894201Y-119767114D01*
X139742629Y-119993957D01*
X139700000Y-120096873D01*
X139657371Y-119993957D01*
X139505799Y-119767114D01*
X139312886Y-119574201D01*
X139086043Y-119422629D01*
X138833989Y-119318225D01*
X138566411Y-119265000D01*
X138293589Y-119265000D01*
X138026011Y-119318225D01*
X137773957Y-119422629D01*
X137547114Y-119574201D01*
X137354201Y-119767114D01*
X137202629Y-119993957D01*
X137160000Y-120096873D01*
X137117371Y-119993957D01*
X136965799Y-119767114D01*
X136772886Y-119574201D01*
X136546043Y-119422629D01*
X136293989Y-119318225D01*
X136026411Y-119265000D01*
X135753589Y-119265000D01*
X135486011Y-119318225D01*
X135233957Y-119422629D01*
X135007114Y-119574201D01*
X134814201Y-119767114D01*
X134662629Y-119993957D01*
X134620000Y-120096873D01*
X134577371Y-119993957D01*
X134425799Y-119767114D01*
X134232886Y-119574201D01*
X134006043Y-119422629D01*
X133753989Y-119318225D01*
X133486411Y-119265000D01*
X133213589Y-119265000D01*
X132946011Y-119318225D01*
X132693957Y-119422629D01*
X132467114Y-119574201D01*
X132274201Y-119767114D01*
X132122629Y-119993957D01*
X132080000Y-120096873D01*
X132037371Y-119993957D01*
X131885799Y-119767114D01*
X131692886Y-119574201D01*
X131466043Y-119422629D01*
X131213989Y-119318225D01*
X130946411Y-119265000D01*
X130673589Y-119265000D01*
X130406011Y-119318225D01*
X130153957Y-119422629D01*
X129927114Y-119574201D01*
X129734201Y-119767114D01*
X129656445Y-119883483D01*
X129645812Y-119775518D01*
X129609502Y-119655820D01*
X129550537Y-119545506D01*
X129471185Y-119448815D01*
X129374494Y-119369463D01*
X129264180Y-119310498D01*
X129144482Y-119274188D01*
X129020000Y-119261928D01*
X128555750Y-119265000D01*
X128397000Y-119423750D01*
X128397000Y-120523000D01*
X128417000Y-120523000D01*
X128417000Y-120777000D01*
X128397000Y-120777000D01*
X128397000Y-121876250D01*
X128555750Y-122035000D01*
X129020000Y-122038072D01*
X129144482Y-122025812D01*
X129264180Y-121989502D01*
X129374494Y-121930537D01*
X129471185Y-121851185D01*
X129475001Y-121846536D01*
X129475000Y-123125000D01*
X97855000Y-123125000D01*
X97855000Y-121400000D01*
X126881928Y-121400000D01*
X126894188Y-121524482D01*
X126930498Y-121644180D01*
X126989463Y-121754494D01*
X127068815Y-121851185D01*
X127165506Y-121930537D01*
X127275820Y-121989502D01*
X127395518Y-122025812D01*
X127520000Y-122038072D01*
X127984250Y-122035000D01*
X128143000Y-121876250D01*
X128143000Y-120777000D01*
X127043750Y-120777000D01*
X126885000Y-120935750D01*
X126881928Y-121400000D01*
X97855000Y-121400000D01*
X97855000Y-119459224D01*
X100270381Y-119459224D01*
X100402317Y-119754312D01*
X100743045Y-119925159D01*
X101110557Y-120026250D01*
X101490729Y-120053701D01*
X101868951Y-120006457D01*
X102189533Y-119900000D01*
X126881928Y-119900000D01*
X126885000Y-120364250D01*
X127043750Y-120523000D01*
X128143000Y-120523000D01*
X128143000Y-119423750D01*
X127984250Y-119265000D01*
X127520000Y-119261928D01*
X127395518Y-119274188D01*
X127275820Y-119310498D01*
X127165506Y-119369463D01*
X127068815Y-119448815D01*
X126989463Y-119545506D01*
X126930498Y-119655820D01*
X126894188Y-119775518D01*
X126881928Y-119900000D01*
X102189533Y-119900000D01*
X102230690Y-119886333D01*
X102477683Y-119754312D01*
X102609619Y-119459224D01*
X101440000Y-118289605D01*
X100270381Y-119459224D01*
X97855000Y-119459224D01*
X97855000Y-119431504D01*
X97943013Y-119343491D01*
X98154775Y-119026566D01*
X98300639Y-118674419D01*
X98375000Y-118300581D01*
X98375000Y-118160729D01*
X99496299Y-118160729D01*
X99543543Y-118538951D01*
X99663667Y-118900690D01*
X99795688Y-119147683D01*
X100090776Y-119279619D01*
X101260395Y-118110000D01*
X101619605Y-118110000D01*
X102789224Y-119279619D01*
X103084312Y-119147683D01*
X103255159Y-118806955D01*
X103356250Y-118439443D01*
X103383701Y-118059271D01*
X103336457Y-117681049D01*
X103216333Y-117319310D01*
X103084312Y-117072317D01*
X102789224Y-116940381D01*
X101619605Y-118110000D01*
X101260395Y-118110000D01*
X100090776Y-116940381D01*
X99795688Y-117072317D01*
X99624841Y-117413045D01*
X99523750Y-117780557D01*
X99496299Y-118160729D01*
X98375000Y-118160729D01*
X98375000Y-117919419D01*
X98300639Y-117545581D01*
X98154775Y-117193434D01*
X97943013Y-116876509D01*
X97827280Y-116760776D01*
X100270381Y-116760776D01*
X101440000Y-117930395D01*
X102609619Y-116760776D01*
X102477683Y-116465688D01*
X102136955Y-116294841D01*
X101769443Y-116193750D01*
X101389271Y-116166299D01*
X101011049Y-116213543D01*
X100649310Y-116333667D01*
X100402317Y-116465688D01*
X100270381Y-116760776D01*
X97827280Y-116760776D01*
X97673491Y-116606987D01*
X97356566Y-116395225D01*
X97004419Y-116249361D01*
X96630581Y-116175000D01*
X96249419Y-116175000D01*
X95875581Y-116249361D01*
X95523434Y-116395225D01*
X95206509Y-116606987D01*
X94936987Y-116876509D01*
X94725225Y-117193434D01*
X94579361Y-117545581D01*
X94505000Y-117919419D01*
X94505000Y-118300581D01*
X94579361Y-118674419D01*
X94725225Y-119026566D01*
X94936987Y-119343491D01*
X95185001Y-119591505D01*
X95185000Y-123125000D01*
X78022975Y-123125000D01*
X77882400Y-122984426D01*
X77944524Y-122834446D01*
X78065000Y-122228771D01*
X78065000Y-121611229D01*
X77944524Y-121005554D01*
X77708201Y-120435021D01*
X77365114Y-119921554D01*
X76928446Y-119484886D01*
X76414979Y-119141799D01*
X75844446Y-118905476D01*
X75238771Y-118785000D01*
X74621229Y-118785000D01*
X74015554Y-118905476D01*
X73445021Y-119141799D01*
X72931554Y-119484886D01*
X72494886Y-119921554D01*
X72151799Y-120435021D01*
X71915476Y-121005554D01*
X71795000Y-121611229D01*
X70510000Y-121611229D01*
X70510000Y-116810000D01*
X89501928Y-116810000D01*
X89501928Y-119410000D01*
X89514188Y-119534482D01*
X89550498Y-119654180D01*
X89609463Y-119764494D01*
X89688815Y-119861185D01*
X89785506Y-119940537D01*
X89895820Y-119999502D01*
X90015518Y-120035812D01*
X90140000Y-120048072D01*
X92740000Y-120048072D01*
X92864482Y-120035812D01*
X92984180Y-119999502D01*
X93094494Y-119940537D01*
X93191185Y-119861185D01*
X93270537Y-119764494D01*
X93329502Y-119654180D01*
X93365812Y-119534482D01*
X93378072Y-119410000D01*
X93378072Y-116810000D01*
X93365812Y-116685518D01*
X93329502Y-116565820D01*
X93270537Y-116455506D01*
X93191185Y-116358815D01*
X93094494Y-116279463D01*
X92984180Y-116220498D01*
X92864482Y-116184188D01*
X92740000Y-116171928D01*
X90140000Y-116171928D01*
X90015518Y-116184188D01*
X89895820Y-116220498D01*
X89785506Y-116279463D01*
X89688815Y-116358815D01*
X89609463Y-116455506D01*
X89550498Y-116565820D01*
X89514188Y-116685518D01*
X89501928Y-116810000D01*
X70510000Y-116810000D01*
X70510000Y-115435413D01*
X173154192Y-115435413D01*
X173249956Y-115699814D01*
X173539571Y-115840704D01*
X173851108Y-115922384D01*
X174172595Y-115941718D01*
X174491675Y-115897961D01*
X174796088Y-115792795D01*
X174970044Y-115699814D01*
X175065808Y-115435413D01*
X174110000Y-114479605D01*
X173154192Y-115435413D01*
X70510000Y-115435413D01*
X70510000Y-114362595D01*
X172468282Y-114362595D01*
X172512039Y-114681675D01*
X172617205Y-114986088D01*
X172710186Y-115160044D01*
X172974587Y-115255808D01*
X173930395Y-114300000D01*
X174289605Y-114300000D01*
X175245413Y-115255808D01*
X175509814Y-115160044D01*
X175650704Y-114870429D01*
X175732384Y-114558892D01*
X175751718Y-114237405D01*
X175707961Y-113918325D01*
X175602795Y-113613912D01*
X175509814Y-113439956D01*
X175245413Y-113344192D01*
X174289605Y-114300000D01*
X173930395Y-114300000D01*
X172974587Y-113344192D01*
X172710186Y-113439956D01*
X172569296Y-113729571D01*
X172487616Y-114041108D01*
X172468282Y-114362595D01*
X70510000Y-114362595D01*
X70510000Y-113164587D01*
X173154192Y-113164587D01*
X174110000Y-114120395D01*
X175065808Y-113164587D01*
X174970044Y-112900186D01*
X174680429Y-112759296D01*
X174368892Y-112677616D01*
X174047405Y-112658282D01*
X173728325Y-112702039D01*
X173423912Y-112807205D01*
X173249956Y-112900186D01*
X173154192Y-113164587D01*
X70510000Y-113164587D01*
X70510000Y-105273589D01*
X126885000Y-105273589D01*
X126885000Y-105546411D01*
X126938225Y-105813989D01*
X127042629Y-106066043D01*
X127194201Y-106292886D01*
X127387114Y-106485799D01*
X127613957Y-106637371D01*
X127866011Y-106741775D01*
X128133589Y-106795000D01*
X128406411Y-106795000D01*
X128673989Y-106741775D01*
X128926043Y-106637371D01*
X129152886Y-106485799D01*
X129345799Y-106292886D01*
X129497371Y-106066043D01*
X129540000Y-105963127D01*
X129582629Y-106066043D01*
X129734201Y-106292886D01*
X129927114Y-106485799D01*
X130153957Y-106637371D01*
X130406011Y-106741775D01*
X130673589Y-106795000D01*
X130946411Y-106795000D01*
X131213989Y-106741775D01*
X131466043Y-106637371D01*
X131692886Y-106485799D01*
X131885799Y-106292886D01*
X132037371Y-106066043D01*
X132080000Y-105963127D01*
X132122629Y-106066043D01*
X132274201Y-106292886D01*
X132467114Y-106485799D01*
X132693957Y-106637371D01*
X132946011Y-106741775D01*
X133213589Y-106795000D01*
X133486411Y-106795000D01*
X133753989Y-106741775D01*
X134006043Y-106637371D01*
X134232886Y-106485799D01*
X134425799Y-106292886D01*
X134577371Y-106066043D01*
X134620000Y-105963127D01*
X134662629Y-106066043D01*
X134814201Y-106292886D01*
X135007114Y-106485799D01*
X135233957Y-106637371D01*
X135486011Y-106741775D01*
X135753589Y-106795000D01*
X136026411Y-106795000D01*
X136293989Y-106741775D01*
X136546043Y-106637371D01*
X136772886Y-106485799D01*
X136965799Y-106292886D01*
X137117371Y-106066043D01*
X137160000Y-105963127D01*
X137202629Y-106066043D01*
X137354201Y-106292886D01*
X137547114Y-106485799D01*
X137773957Y-106637371D01*
X138026011Y-106741775D01*
X138293589Y-106795000D01*
X138566411Y-106795000D01*
X138833989Y-106741775D01*
X139086043Y-106637371D01*
X139312886Y-106485799D01*
X139505799Y-106292886D01*
X139657371Y-106066043D01*
X139700000Y-105963127D01*
X139742629Y-106066043D01*
X139894201Y-106292886D01*
X140087114Y-106485799D01*
X140313957Y-106637371D01*
X140566011Y-106741775D01*
X140833589Y-106795000D01*
X141106411Y-106795000D01*
X141373989Y-106741775D01*
X141626043Y-106637371D01*
X141852886Y-106485799D01*
X142045799Y-106292886D01*
X142197371Y-106066043D01*
X142301775Y-105813989D01*
X142355000Y-105546411D01*
X142355000Y-105273589D01*
X142301775Y-105006011D01*
X142197371Y-104753957D01*
X142045799Y-104527114D01*
X141852886Y-104334201D01*
X141626043Y-104182629D01*
X141373989Y-104078225D01*
X141106411Y-104025000D01*
X140833589Y-104025000D01*
X140566011Y-104078225D01*
X140313957Y-104182629D01*
X140087114Y-104334201D01*
X139894201Y-104527114D01*
X139742629Y-104753957D01*
X139700000Y-104856873D01*
X139657371Y-104753957D01*
X139505799Y-104527114D01*
X139312886Y-104334201D01*
X139086043Y-104182629D01*
X138833989Y-104078225D01*
X138566411Y-104025000D01*
X138293589Y-104025000D01*
X138026011Y-104078225D01*
X137773957Y-104182629D01*
X137547114Y-104334201D01*
X137354201Y-104527114D01*
X137202629Y-104753957D01*
X137160000Y-104856873D01*
X137117371Y-104753957D01*
X136965799Y-104527114D01*
X136772886Y-104334201D01*
X136546043Y-104182629D01*
X136293989Y-104078225D01*
X136026411Y-104025000D01*
X135753589Y-104025000D01*
X135486011Y-104078225D01*
X135233957Y-104182629D01*
X135007114Y-104334201D01*
X134814201Y-104527114D01*
X134662629Y-104753957D01*
X134620000Y-104856873D01*
X134577371Y-104753957D01*
X134425799Y-104527114D01*
X134232886Y-104334201D01*
X134006043Y-104182629D01*
X133753989Y-104078225D01*
X133486411Y-104025000D01*
X133213589Y-104025000D01*
X132946011Y-104078225D01*
X132693957Y-104182629D01*
X132467114Y-104334201D01*
X132274201Y-104527114D01*
X132122629Y-104753957D01*
X132080000Y-104856873D01*
X132037371Y-104753957D01*
X131885799Y-104527114D01*
X131692886Y-104334201D01*
X131466043Y-104182629D01*
X131213989Y-104078225D01*
X130946411Y-104025000D01*
X130673589Y-104025000D01*
X130406011Y-104078225D01*
X130153957Y-104182629D01*
X129927114Y-104334201D01*
X129734201Y-104527114D01*
X129582629Y-104753957D01*
X129540000Y-104856873D01*
X129497371Y-104753957D01*
X129345799Y-104527114D01*
X129152886Y-104334201D01*
X128926043Y-104182629D01*
X128673989Y-104078225D01*
X128406411Y-104025000D01*
X128133589Y-104025000D01*
X127866011Y-104078225D01*
X127613957Y-104182629D01*
X127387114Y-104334201D01*
X127194201Y-104527114D01*
X127042629Y-104753957D01*
X126938225Y-105006011D01*
X126885000Y-105273589D01*
X70510000Y-105273589D01*
X70510000Y-92359419D01*
X78075000Y-92359419D01*
X78075000Y-92740581D01*
X78149361Y-93114419D01*
X78295225Y-93466566D01*
X78506987Y-93783491D01*
X78776509Y-94053013D01*
X79093434Y-94264775D01*
X79445581Y-94410639D01*
X79819419Y-94485000D01*
X80057026Y-94485000D01*
X81453550Y-95881525D01*
X81495356Y-95932466D01*
X81698636Y-96099293D01*
X81930557Y-96223258D01*
X82182205Y-96299594D01*
X82443911Y-96325370D01*
X82509490Y-96318911D01*
X99932407Y-96318911D01*
X100100420Y-96486924D01*
X100417345Y-96698686D01*
X100769492Y-96844550D01*
X101143330Y-96918911D01*
X101524492Y-96918911D01*
X101898330Y-96844550D01*
X102250477Y-96698686D01*
X102567402Y-96486924D01*
X102836924Y-96217402D01*
X103048686Y-95900477D01*
X103194550Y-95548330D01*
X103268911Y-95174492D01*
X103268911Y-94793330D01*
X103194550Y-94419492D01*
X103048686Y-94067345D01*
X102836924Y-93750420D01*
X102811917Y-93725413D01*
X127314192Y-93725413D01*
X127409956Y-93989814D01*
X127699571Y-94130704D01*
X128011108Y-94212384D01*
X128332595Y-94231718D01*
X128651675Y-94187961D01*
X128956088Y-94082795D01*
X129130044Y-93989814D01*
X129225808Y-93725413D01*
X128270000Y-92769605D01*
X127314192Y-93725413D01*
X102811917Y-93725413D01*
X102567402Y-93480898D01*
X102250477Y-93269136D01*
X101898330Y-93123272D01*
X101524492Y-93048911D01*
X101143330Y-93048911D01*
X100769492Y-93123272D01*
X100417345Y-93269136D01*
X100100420Y-93480898D01*
X99932407Y-93648911D01*
X82996886Y-93648911D01*
X82000570Y-92652595D01*
X126628282Y-92652595D01*
X126672039Y-92971675D01*
X126777205Y-93276088D01*
X126870186Y-93450044D01*
X127134587Y-93545808D01*
X128090395Y-92590000D01*
X128449605Y-92590000D01*
X129405413Y-93545808D01*
X129669814Y-93450044D01*
X129810704Y-93160429D01*
X129892384Y-92848892D01*
X129911718Y-92527405D01*
X129887761Y-92352702D01*
X143966903Y-92352702D01*
X144038486Y-92596671D01*
X144293996Y-92717571D01*
X144568184Y-92786300D01*
X144850512Y-92800217D01*
X145130130Y-92758787D01*
X145396292Y-92663603D01*
X145521514Y-92596671D01*
X145593097Y-92352702D01*
X144780000Y-91539605D01*
X143966903Y-92352702D01*
X129887761Y-92352702D01*
X129867961Y-92208325D01*
X129762795Y-91903912D01*
X129669814Y-91729956D01*
X129405413Y-91634192D01*
X128449605Y-92590000D01*
X128090395Y-92590000D01*
X127134587Y-91634192D01*
X126870186Y-91729956D01*
X126729296Y-92019571D01*
X126647616Y-92331108D01*
X126628282Y-92652595D01*
X82000570Y-92652595D01*
X81945000Y-92597026D01*
X81945000Y-92359419D01*
X81870639Y-91985581D01*
X81724775Y-91633434D01*
X81605274Y-91454587D01*
X127314192Y-91454587D01*
X128270000Y-92410395D01*
X129225808Y-91454587D01*
X129217089Y-91430512D01*
X143339783Y-91430512D01*
X143381213Y-91710130D01*
X143476397Y-91976292D01*
X143543329Y-92101514D01*
X143787298Y-92173097D01*
X144600395Y-91360000D01*
X144959605Y-91360000D01*
X145772702Y-92173097D01*
X146016671Y-92101514D01*
X146137571Y-91846004D01*
X146155787Y-91773329D01*
X149837284Y-91773329D01*
X149869953Y-91881044D01*
X149980208Y-92118392D01*
X150134649Y-92329670D01*
X150327340Y-92506759D01*
X150550877Y-92642853D01*
X150796670Y-92732722D01*
X151003000Y-92610201D01*
X151003000Y-91567000D01*
X151257000Y-91567000D01*
X151257000Y-92610201D01*
X151463330Y-92732722D01*
X151709123Y-92642853D01*
X151932660Y-92506759D01*
X152125351Y-92329670D01*
X152279792Y-92118392D01*
X152390047Y-91881044D01*
X152422716Y-91773329D01*
X152299374Y-91567000D01*
X151257000Y-91567000D01*
X151003000Y-91567000D01*
X149960626Y-91567000D01*
X149837284Y-91773329D01*
X146155787Y-91773329D01*
X146206300Y-91571816D01*
X146220217Y-91289488D01*
X146193130Y-91106671D01*
X149837284Y-91106671D01*
X149960626Y-91313000D01*
X151003000Y-91313000D01*
X151003000Y-90269799D01*
X151257000Y-90269799D01*
X151257000Y-91313000D01*
X152299374Y-91313000D01*
X152422716Y-91106671D01*
X152390047Y-90998956D01*
X152279792Y-90761608D01*
X152125351Y-90550330D01*
X151932660Y-90373241D01*
X151709123Y-90237147D01*
X151463330Y-90147278D01*
X151257000Y-90269799D01*
X151003000Y-90269799D01*
X150796670Y-90147278D01*
X150550877Y-90237147D01*
X150327340Y-90373241D01*
X150134649Y-90550330D01*
X149980208Y-90761608D01*
X149869953Y-90998956D01*
X149837284Y-91106671D01*
X146193130Y-91106671D01*
X146178787Y-91009870D01*
X146083603Y-90743708D01*
X146016671Y-90618486D01*
X145772702Y-90546903D01*
X144959605Y-91360000D01*
X144600395Y-91360000D01*
X143787298Y-90546903D01*
X143543329Y-90618486D01*
X143422429Y-90873996D01*
X143353700Y-91148184D01*
X143339783Y-91430512D01*
X129217089Y-91430512D01*
X129130044Y-91190186D01*
X128840429Y-91049296D01*
X128528892Y-90967616D01*
X128207405Y-90948282D01*
X127888325Y-90992039D01*
X127583912Y-91097205D01*
X127409956Y-91190186D01*
X127314192Y-91454587D01*
X81605274Y-91454587D01*
X81513013Y-91316509D01*
X81243491Y-91046987D01*
X80926566Y-90835225D01*
X80574419Y-90689361D01*
X80200581Y-90615000D01*
X79819419Y-90615000D01*
X79445581Y-90689361D01*
X79093434Y-90835225D01*
X78776509Y-91046987D01*
X78506987Y-91316509D01*
X78295225Y-91633434D01*
X78149361Y-91985581D01*
X78075000Y-92359419D01*
X70510000Y-92359419D01*
X70510000Y-90367298D01*
X143966903Y-90367298D01*
X144780000Y-91180395D01*
X145593097Y-90367298D01*
X145521514Y-90123329D01*
X145266004Y-90002429D01*
X144991816Y-89933700D01*
X144709488Y-89919783D01*
X144429870Y-89961213D01*
X144163708Y-90056397D01*
X144038486Y-90123329D01*
X143966903Y-90367298D01*
X70510000Y-90367298D01*
X70510000Y-87359419D01*
X78075000Y-87359419D01*
X78075000Y-87740581D01*
X78149361Y-88114419D01*
X78295225Y-88466566D01*
X78506987Y-88783491D01*
X78776509Y-89053013D01*
X79093434Y-89264775D01*
X79445581Y-89410639D01*
X79819419Y-89485000D01*
X80200581Y-89485000D01*
X80574419Y-89410639D01*
X80926566Y-89264775D01*
X81243491Y-89053013D01*
X81320703Y-88975801D01*
X92813804Y-88975801D01*
X92813804Y-89200307D01*
X93528815Y-89919663D01*
X93625506Y-89999016D01*
X93735820Y-90057980D01*
X93855519Y-90094289D01*
X93980000Y-90106550D01*
X94104481Y-90094289D01*
X94224180Y-90057980D01*
X94334494Y-89999016D01*
X94431185Y-89919663D01*
X95146196Y-89200307D01*
X95146196Y-88975801D01*
X93980000Y-87809605D01*
X92813804Y-88975801D01*
X81320703Y-88975801D01*
X81513013Y-88783491D01*
X81724775Y-88466566D01*
X81870639Y-88114419D01*
X81945000Y-87740581D01*
X81945000Y-87630000D01*
X91503450Y-87630000D01*
X91515711Y-87754481D01*
X91552020Y-87874180D01*
X91610984Y-87984494D01*
X91690337Y-88081185D01*
X92409693Y-88796196D01*
X92634199Y-88796196D01*
X93800395Y-87630000D01*
X94159605Y-87630000D01*
X95325801Y-88796196D01*
X95550307Y-88796196D01*
X96269663Y-88081185D01*
X96349016Y-87984494D01*
X96407980Y-87874180D01*
X96444289Y-87754481D01*
X96456550Y-87630000D01*
X96444289Y-87505519D01*
X96424239Y-87439419D01*
X106752821Y-87439419D01*
X106752821Y-87820581D01*
X106827182Y-88194419D01*
X106973046Y-88546566D01*
X107184808Y-88863491D01*
X107454330Y-89133013D01*
X107771255Y-89344775D01*
X108123402Y-89490639D01*
X108497240Y-89565000D01*
X108878402Y-89565000D01*
X109252240Y-89490639D01*
X109604387Y-89344775D01*
X109921312Y-89133013D01*
X110190834Y-88863491D01*
X110402596Y-88546566D01*
X110548460Y-88194419D01*
X110622821Y-87820581D01*
X110622821Y-87582974D01*
X111780796Y-86425000D01*
X127325047Y-86425000D01*
X127495537Y-86538918D01*
X127793088Y-86662168D01*
X128108967Y-86725000D01*
X128431033Y-86725000D01*
X128746912Y-86662168D01*
X129044463Y-86538918D01*
X129214953Y-86425000D01*
X142957026Y-86425000D01*
X143463467Y-86931441D01*
X143508320Y-87039727D01*
X143665363Y-87274759D01*
X143865241Y-87474637D01*
X144100273Y-87631680D01*
X144361426Y-87739853D01*
X144638665Y-87795000D01*
X144921335Y-87795000D01*
X145198574Y-87739853D01*
X145459727Y-87631680D01*
X145694759Y-87474637D01*
X145894637Y-87274759D01*
X146051680Y-87039727D01*
X146159853Y-86778574D01*
X146215000Y-86501335D01*
X146215000Y-86218665D01*
X146159853Y-85941426D01*
X146051680Y-85680273D01*
X145894637Y-85445241D01*
X145694759Y-85245363D01*
X145459727Y-85088320D01*
X145351441Y-85043467D01*
X144500366Y-84192391D01*
X144458555Y-84141445D01*
X144255275Y-83974618D01*
X144023354Y-83850653D01*
X143771706Y-83774317D01*
X143575579Y-83755000D01*
X143510000Y-83748541D01*
X143444421Y-83755000D01*
X129214953Y-83755000D01*
X129044463Y-83641082D01*
X128746912Y-83517832D01*
X128431033Y-83455000D01*
X128108967Y-83455000D01*
X127793088Y-83517832D01*
X127495537Y-83641082D01*
X127325047Y-83755000D01*
X111293396Y-83755000D01*
X111227820Y-83748541D01*
X111162244Y-83755000D01*
X111162242Y-83755000D01*
X110966115Y-83774317D01*
X110714467Y-83850653D01*
X110482546Y-83974618D01*
X110279266Y-84141445D01*
X110237460Y-84192386D01*
X108734847Y-85695000D01*
X108497240Y-85695000D01*
X108123402Y-85769361D01*
X107771255Y-85915225D01*
X107454330Y-86126987D01*
X107184808Y-86396509D01*
X106973046Y-86713434D01*
X106827182Y-87065581D01*
X106752821Y-87439419D01*
X96424239Y-87439419D01*
X96407980Y-87385820D01*
X96349016Y-87275506D01*
X96269663Y-87178815D01*
X95550307Y-86463804D01*
X95325801Y-86463804D01*
X94159605Y-87630000D01*
X93800395Y-87630000D01*
X92634199Y-86463804D01*
X92409693Y-86463804D01*
X91690337Y-87178815D01*
X91610984Y-87275506D01*
X91552020Y-87385820D01*
X91515711Y-87505519D01*
X91503450Y-87630000D01*
X81945000Y-87630000D01*
X81945000Y-87359419D01*
X81870639Y-86985581D01*
X81724775Y-86633434D01*
X81513013Y-86316509D01*
X81256197Y-86059693D01*
X92813804Y-86059693D01*
X92813804Y-86284199D01*
X93980000Y-87450395D01*
X95146196Y-86284199D01*
X95146196Y-86059693D01*
X94431185Y-85340337D01*
X94334494Y-85260984D01*
X94224180Y-85202020D01*
X94104481Y-85165711D01*
X93980000Y-85153450D01*
X93855519Y-85165711D01*
X93735820Y-85202020D01*
X93625506Y-85260984D01*
X93528815Y-85340337D01*
X92813804Y-86059693D01*
X81256197Y-86059693D01*
X81243491Y-86046987D01*
X80926566Y-85835225D01*
X80574419Y-85689361D01*
X80200581Y-85615000D01*
X79819419Y-85615000D01*
X79445581Y-85689361D01*
X79093434Y-85835225D01*
X78776509Y-86046987D01*
X78506987Y-86316509D01*
X78295225Y-86633434D01*
X78149361Y-86985581D01*
X78075000Y-87359419D01*
X70510000Y-87359419D01*
X70510000Y-81250000D01*
X78071928Y-81250000D01*
X78071928Y-83850000D01*
X78084188Y-83974482D01*
X78120498Y-84094180D01*
X78179463Y-84204494D01*
X78258815Y-84301185D01*
X78355506Y-84380537D01*
X78465820Y-84439502D01*
X78585518Y-84475812D01*
X78710000Y-84488072D01*
X81310000Y-84488072D01*
X81434482Y-84475812D01*
X81554180Y-84439502D01*
X81664494Y-84380537D01*
X81761185Y-84301185D01*
X81840537Y-84204494D01*
X81899502Y-84094180D01*
X81935812Y-83974482D01*
X81948072Y-83850000D01*
X81948072Y-82499903D01*
X82836887Y-81611089D01*
X99932407Y-81611089D01*
X100100420Y-81779102D01*
X100417345Y-81990864D01*
X100769492Y-82136728D01*
X101143330Y-82211089D01*
X101524492Y-82211089D01*
X101898330Y-82136728D01*
X102250477Y-81990864D01*
X102567402Y-81779102D01*
X102836924Y-81509580D01*
X103048686Y-81192655D01*
X103194550Y-80840508D01*
X103268911Y-80466670D01*
X103268911Y-80085508D01*
X103194550Y-79711670D01*
X103048686Y-79359523D01*
X102836924Y-79042598D01*
X102567402Y-78773076D01*
X102250477Y-78561314D01*
X101898330Y-78415450D01*
X101524492Y-78341089D01*
X101143330Y-78341089D01*
X100769492Y-78415450D01*
X100417345Y-78561314D01*
X100100420Y-78773076D01*
X99932407Y-78941089D01*
X82349490Y-78941089D01*
X82283911Y-78934630D01*
X82218332Y-78941089D01*
X82022205Y-78960406D01*
X81770557Y-79036742D01*
X81597864Y-79129049D01*
X81538636Y-79160707D01*
X81440801Y-79240998D01*
X81335356Y-79327534D01*
X81293554Y-79378470D01*
X80060097Y-80611928D01*
X78710000Y-80611928D01*
X78585518Y-80624188D01*
X78465820Y-80660498D01*
X78355506Y-80719463D01*
X78258815Y-80798815D01*
X78179463Y-80895506D01*
X78120498Y-81005820D01*
X78084188Y-81125518D01*
X78071928Y-81250000D01*
X70510000Y-81250000D01*
X70510000Y-77740000D01*
X148269428Y-77740000D01*
X148269428Y-79740000D01*
X148281688Y-79864482D01*
X148317998Y-79984180D01*
X148376963Y-80094494D01*
X148456315Y-80191185D01*
X148553006Y-80270537D01*
X148663320Y-80329502D01*
X148783018Y-80365812D01*
X148907500Y-80378072D01*
X149205674Y-80378072D01*
X149225026Y-80414276D01*
X149296201Y-80501002D01*
X149320000Y-80530001D01*
X149348998Y-80553799D01*
X154396201Y-85601003D01*
X154419999Y-85630001D01*
X154535724Y-85724974D01*
X154667753Y-85795546D01*
X154811014Y-85839003D01*
X154922667Y-85850000D01*
X154922676Y-85850000D01*
X154959999Y-85853676D01*
X154997322Y-85850000D01*
X157652225Y-85850000D01*
X157713038Y-85941013D01*
X157898987Y-86126962D01*
X157990001Y-86187775D01*
X157990000Y-90342225D01*
X157898987Y-90403038D01*
X157713038Y-90588987D01*
X157566939Y-90807641D01*
X157466304Y-91050595D01*
X157415000Y-91308514D01*
X157415000Y-91571486D01*
X157466304Y-91829405D01*
X157566939Y-92072359D01*
X157713038Y-92291013D01*
X157898987Y-92476962D01*
X158117641Y-92623061D01*
X158360595Y-92723696D01*
X158618514Y-92775000D01*
X158881486Y-92775000D01*
X159139405Y-92723696D01*
X159382359Y-92623061D01*
X159601013Y-92476962D01*
X159786962Y-92291013D01*
X159933061Y-92072359D01*
X160033696Y-91829405D01*
X160038602Y-91804740D01*
X181388964Y-91804740D01*
X181437606Y-91965107D01*
X181567764Y-92236414D01*
X181748351Y-92477116D01*
X181972427Y-92677962D01*
X182231380Y-92831234D01*
X182515259Y-92931041D01*
X182753000Y-92810992D01*
X182753000Y-91567000D01*
X183007000Y-91567000D01*
X183007000Y-92810992D01*
X183244741Y-92931041D01*
X183528620Y-92831234D01*
X183787573Y-92677962D01*
X184011649Y-92477116D01*
X184192236Y-92236414D01*
X184322394Y-91965107D01*
X184371036Y-91804740D01*
X184250378Y-91567000D01*
X183007000Y-91567000D01*
X182753000Y-91567000D01*
X181509622Y-91567000D01*
X181388964Y-91804740D01*
X160038602Y-91804740D01*
X160085000Y-91571486D01*
X160085000Y-91308514D01*
X160038603Y-91075260D01*
X181388964Y-91075260D01*
X181509622Y-91313000D01*
X182753000Y-91313000D01*
X182753000Y-90069008D01*
X183007000Y-90069008D01*
X183007000Y-91313000D01*
X184250378Y-91313000D01*
X184371036Y-91075260D01*
X184322394Y-90914893D01*
X184192236Y-90643586D01*
X184011649Y-90402884D01*
X183787573Y-90202038D01*
X183528620Y-90048766D01*
X183244741Y-89948959D01*
X183007000Y-90069008D01*
X182753000Y-90069008D01*
X182515259Y-89948959D01*
X182231380Y-90048766D01*
X181972427Y-90202038D01*
X181748351Y-90402884D01*
X181567764Y-90643586D01*
X181437606Y-90914893D01*
X181388964Y-91075260D01*
X160038603Y-91075260D01*
X160033696Y-91050595D01*
X159933061Y-90807641D01*
X159786962Y-90588987D01*
X159601013Y-90403038D01*
X159510000Y-90342225D01*
X159510000Y-89979764D01*
X175859841Y-89979764D01*
X175907148Y-90203348D01*
X176128516Y-90304237D01*
X176365313Y-90360000D01*
X176608438Y-90368495D01*
X176848549Y-90329395D01*
X177076418Y-90244202D01*
X177152852Y-90203348D01*
X177200159Y-89979764D01*
X176530000Y-89309605D01*
X175859841Y-89979764D01*
X159510000Y-89979764D01*
X159510000Y-86187775D01*
X159601013Y-86126962D01*
X159786962Y-85941013D01*
X159933061Y-85722359D01*
X160033696Y-85479405D01*
X160085000Y-85221486D01*
X160085000Y-84958514D01*
X160058442Y-84824999D01*
X164217025Y-84824999D01*
X165333038Y-85941013D01*
X165518987Y-86126962D01*
X165518990Y-86126964D01*
X167919639Y-88527614D01*
X167961445Y-88578555D01*
X168164725Y-88745382D01*
X168396646Y-88869347D01*
X168648294Y-88945683D01*
X168844421Y-88965000D01*
X168844423Y-88965000D01*
X168909999Y-88971459D01*
X168975575Y-88965000D01*
X175300074Y-88965000D01*
X175300000Y-88965313D01*
X175291505Y-89208438D01*
X175330605Y-89448549D01*
X175415798Y-89676418D01*
X175456652Y-89752852D01*
X175680236Y-89800159D01*
X176350395Y-89130000D01*
X176336253Y-89115858D01*
X176485076Y-88967034D01*
X176530000Y-88971459D01*
X176574924Y-88967034D01*
X176723748Y-89115858D01*
X176709605Y-89130000D01*
X177379764Y-89800159D01*
X177603348Y-89752852D01*
X177704237Y-89531484D01*
X177760000Y-89294687D01*
X177768495Y-89051562D01*
X177729395Y-88811451D01*
X177644202Y-88583582D01*
X177603348Y-88507148D01*
X177551745Y-88496229D01*
X182956705Y-83091270D01*
X182975000Y-83093072D01*
X183890000Y-83093072D01*
X183890001Y-86099412D01*
X183883541Y-86165000D01*
X183909317Y-86426705D01*
X183985654Y-86678354D01*
X184095963Y-86884726D01*
X184109619Y-86910275D01*
X184276446Y-87113555D01*
X184327387Y-87155361D01*
X188961928Y-91789903D01*
X188961928Y-92340000D01*
X188974188Y-92464482D01*
X189010498Y-92584180D01*
X189069463Y-92694494D01*
X189148815Y-92791185D01*
X189168096Y-92807008D01*
X189184317Y-92971706D01*
X189260653Y-93223354D01*
X189384619Y-93455275D01*
X189551446Y-93658555D01*
X189602387Y-93700361D01*
X202535000Y-106632975D01*
X202535000Y-106870581D01*
X202609361Y-107244419D01*
X202755225Y-107596566D01*
X202966987Y-107913491D01*
X203236509Y-108183013D01*
X203553434Y-108394775D01*
X203905581Y-108540639D01*
X204279419Y-108615000D01*
X204660581Y-108615000D01*
X205034419Y-108540639D01*
X205386566Y-108394775D01*
X205703491Y-108183013D01*
X205973013Y-107913491D01*
X206184775Y-107596566D01*
X206330639Y-107244419D01*
X206405000Y-106870581D01*
X206405000Y-106489419D01*
X206330639Y-106115581D01*
X206265787Y-105959014D01*
X210061003Y-102163799D01*
X210090001Y-102140001D01*
X210116332Y-102107917D01*
X210184974Y-102024277D01*
X210255546Y-101892247D01*
X210299003Y-101748986D01*
X210310000Y-101637333D01*
X210310000Y-101637323D01*
X210313676Y-101600000D01*
X210310000Y-101562677D01*
X210310000Y-90021828D01*
X210413762Y-89952497D01*
X210602497Y-89763762D01*
X210750785Y-89541833D01*
X210852928Y-89295239D01*
X210905000Y-89033456D01*
X210905000Y-88766544D01*
X210852928Y-88504761D01*
X210750785Y-88258167D01*
X210602497Y-88036238D01*
X210413762Y-87847503D01*
X210191833Y-87699215D01*
X209945239Y-87597072D01*
X209683456Y-87545000D01*
X209416544Y-87545000D01*
X209154761Y-87597072D01*
X208908167Y-87699215D01*
X208686238Y-87847503D01*
X208497503Y-88036238D01*
X208349215Y-88258167D01*
X208247072Y-88504761D01*
X208195000Y-88766544D01*
X208195000Y-89033456D01*
X208247072Y-89295239D01*
X208349215Y-89541833D01*
X208497503Y-89763762D01*
X208686238Y-89952497D01*
X208790000Y-90021829D01*
X208790001Y-101285197D01*
X205190986Y-104884213D01*
X205034419Y-104819361D01*
X204660581Y-104745000D01*
X204422975Y-104745000D01*
X192036270Y-92358296D01*
X192038072Y-92340000D01*
X192038072Y-90540000D01*
X192025812Y-90415518D01*
X191989502Y-90295820D01*
X191930537Y-90185506D01*
X191851185Y-90088815D01*
X191754494Y-90009463D01*
X191644180Y-89950498D01*
X191524482Y-89914188D01*
X191400000Y-89901928D01*
X190849903Y-89901928D01*
X186560000Y-85612026D01*
X186560000Y-83090921D01*
X186639250Y-83090000D01*
X186798000Y-82931250D01*
X186798000Y-80282000D01*
X186778000Y-80282000D01*
X186778000Y-80028000D01*
X186798000Y-80028000D01*
X186798000Y-77378750D01*
X187052000Y-77378750D01*
X187052000Y-80028000D01*
X187072000Y-80028000D01*
X187072000Y-80282000D01*
X187052000Y-80282000D01*
X187052000Y-82931250D01*
X187210750Y-83090000D01*
X187475000Y-83093072D01*
X187599482Y-83080812D01*
X187719180Y-83044502D01*
X187775000Y-83014665D01*
X187830820Y-83044502D01*
X187870842Y-83056642D01*
X187875997Y-83108985D01*
X187919454Y-83252246D01*
X187990026Y-83384276D01*
X188023252Y-83424761D01*
X188084999Y-83500001D01*
X188114003Y-83523804D01*
X191461201Y-86871003D01*
X191484999Y-86900001D01*
X191513997Y-86923799D01*
X191600723Y-86994974D01*
X191727271Y-87062616D01*
X191732753Y-87065546D01*
X191876014Y-87109003D01*
X191987667Y-87120000D01*
X191987676Y-87120000D01*
X192024999Y-87123676D01*
X192062322Y-87120000D01*
X205888172Y-87120000D01*
X205957503Y-87223762D01*
X206146238Y-87412497D01*
X206368167Y-87560785D01*
X206614761Y-87662928D01*
X206876544Y-87715000D01*
X207143456Y-87715000D01*
X207405239Y-87662928D01*
X207651833Y-87560785D01*
X207873762Y-87412497D01*
X208062497Y-87223762D01*
X208210785Y-87001833D01*
X208312928Y-86755239D01*
X208365000Y-86493456D01*
X208365000Y-86226544D01*
X208312928Y-85964761D01*
X208210785Y-85718167D01*
X208062497Y-85496238D01*
X207873762Y-85307503D01*
X207651833Y-85159215D01*
X207405239Y-85057072D01*
X207143456Y-85005000D01*
X206876544Y-85005000D01*
X206614761Y-85057072D01*
X206368167Y-85159215D01*
X206146238Y-85307503D01*
X205957503Y-85496238D01*
X205888172Y-85600000D01*
X192339802Y-85600000D01*
X189832873Y-83093072D01*
X190875000Y-83093072D01*
X190999482Y-83080812D01*
X191119180Y-83044502D01*
X191229494Y-82985537D01*
X191326185Y-82906185D01*
X191405537Y-82809494D01*
X191464502Y-82699180D01*
X191500812Y-82579482D01*
X191513072Y-82455000D01*
X191513072Y-77855000D01*
X191500812Y-77730518D01*
X191464502Y-77610820D01*
X191405537Y-77500506D01*
X191326185Y-77403815D01*
X191229494Y-77324463D01*
X191119180Y-77265498D01*
X190999482Y-77229188D01*
X190875000Y-77216928D01*
X189775000Y-77216928D01*
X189650518Y-77229188D01*
X189530820Y-77265498D01*
X189475000Y-77295335D01*
X189419180Y-77265498D01*
X189299482Y-77229188D01*
X189175000Y-77216928D01*
X188075000Y-77216928D01*
X187950518Y-77229188D01*
X187830820Y-77265498D01*
X187775000Y-77295335D01*
X187719180Y-77265498D01*
X187599482Y-77229188D01*
X187475000Y-77216928D01*
X187210750Y-77220000D01*
X187052000Y-77378750D01*
X186798000Y-77378750D01*
X186639250Y-77220000D01*
X186375000Y-77216928D01*
X186250518Y-77229188D01*
X186130820Y-77265498D01*
X186075000Y-77295335D01*
X186019180Y-77265498D01*
X185899482Y-77229188D01*
X185775000Y-77216928D01*
X184675000Y-77216928D01*
X184550518Y-77229188D01*
X184430820Y-77265498D01*
X184375000Y-77295335D01*
X184319180Y-77265498D01*
X184199482Y-77229188D01*
X184075000Y-77216928D01*
X182975000Y-77216928D01*
X182850518Y-77229188D01*
X182730820Y-77265498D01*
X182620506Y-77324463D01*
X182523815Y-77403815D01*
X182444463Y-77500506D01*
X182385498Y-77610820D01*
X182349188Y-77730518D01*
X182336928Y-77855000D01*
X182336928Y-79545719D01*
X182285653Y-79641647D01*
X182209317Y-79893295D01*
X182190808Y-80081216D01*
X175977026Y-86295000D01*
X169462975Y-86295000D01*
X167406964Y-84238990D01*
X167406962Y-84238987D01*
X167221013Y-84053038D01*
X165760365Y-82592391D01*
X165718554Y-82541444D01*
X165515274Y-82374617D01*
X165283353Y-82250652D01*
X165031705Y-82174316D01*
X164835578Y-82154999D01*
X164769999Y-82148540D01*
X164704420Y-82154999D01*
X157575630Y-82154999D01*
X155636103Y-80215472D01*
X155826235Y-80113845D01*
X156067963Y-79915463D01*
X156266345Y-79673734D01*
X156413755Y-79397948D01*
X156504530Y-79098703D01*
X156527500Y-78865485D01*
X156527500Y-78614514D01*
X156504530Y-78381296D01*
X156413755Y-78082051D01*
X156266345Y-77806265D01*
X156067963Y-77564537D01*
X155826234Y-77366155D01*
X155550448Y-77218745D01*
X155251203Y-77127970D01*
X154940000Y-77097319D01*
X154628796Y-77127970D01*
X154329551Y-77218745D01*
X154053765Y-77366155D01*
X153812037Y-77564537D01*
X153670000Y-77737609D01*
X153527963Y-77564537D01*
X153286234Y-77366155D01*
X153010448Y-77218745D01*
X152711203Y-77127970D01*
X152400000Y-77097319D01*
X152088796Y-77127970D01*
X151789551Y-77218745D01*
X151513765Y-77366155D01*
X151387905Y-77469446D01*
X151343037Y-77385506D01*
X151263685Y-77288815D01*
X151166994Y-77209463D01*
X151056680Y-77150498D01*
X150936982Y-77114188D01*
X150812500Y-77101928D01*
X148907500Y-77101928D01*
X148783018Y-77114188D01*
X148663320Y-77150498D01*
X148553006Y-77209463D01*
X148456315Y-77288815D01*
X148376963Y-77385506D01*
X148317998Y-77495820D01*
X148281688Y-77615518D01*
X148269428Y-77740000D01*
X70510000Y-77740000D01*
X70510000Y-75705000D01*
X180886928Y-75705000D01*
X180899188Y-75829482D01*
X180935498Y-75949180D01*
X180994463Y-76059494D01*
X181073815Y-76156185D01*
X181170506Y-76235537D01*
X181280820Y-76294502D01*
X181400518Y-76330812D01*
X181525000Y-76343072D01*
X186639250Y-76340000D01*
X186798000Y-76181250D01*
X186798000Y-71132000D01*
X187052000Y-71132000D01*
X187052000Y-76181250D01*
X187210750Y-76340000D01*
X192325000Y-76343072D01*
X192449482Y-76330812D01*
X192569180Y-76294502D01*
X192679494Y-76235537D01*
X192776185Y-76156185D01*
X192855537Y-76059494D01*
X192914502Y-75949180D01*
X192950812Y-75829482D01*
X192963072Y-75705000D01*
X192962442Y-74798514D01*
X200595000Y-74798514D01*
X200595000Y-75061486D01*
X200646304Y-75319405D01*
X200746939Y-75562359D01*
X200893038Y-75781013D01*
X201078987Y-75966962D01*
X201297641Y-76113061D01*
X201540595Y-76213696D01*
X201798514Y-76265000D01*
X202061486Y-76265000D01*
X202168844Y-76243645D01*
X208690112Y-82764914D01*
X208686238Y-82767503D01*
X208497503Y-82956238D01*
X208349215Y-83178167D01*
X208247072Y-83424761D01*
X208195000Y-83686544D01*
X208195000Y-83953456D01*
X208247072Y-84215239D01*
X208349215Y-84461833D01*
X208497503Y-84683762D01*
X208686238Y-84872497D01*
X208908167Y-85020785D01*
X209154761Y-85122928D01*
X209416544Y-85175000D01*
X209683456Y-85175000D01*
X209945239Y-85122928D01*
X210191833Y-85020785D01*
X210413762Y-84872497D01*
X210602497Y-84683762D01*
X210750785Y-84461833D01*
X210852928Y-84215239D01*
X210905000Y-83953456D01*
X210905000Y-83686544D01*
X210852928Y-83424761D01*
X210750785Y-83178167D01*
X210602497Y-82956238D01*
X210413762Y-82767503D01*
X210310000Y-82698172D01*
X210310000Y-82587322D01*
X210313676Y-82549999D01*
X210310000Y-82512676D01*
X210310000Y-82512667D01*
X210299003Y-82401014D01*
X210255546Y-82257753D01*
X210184974Y-82125724D01*
X210090001Y-82009999D01*
X210061003Y-81986201D01*
X203243645Y-75168844D01*
X203265000Y-75061486D01*
X203265000Y-74798514D01*
X203213696Y-74540595D01*
X203113061Y-74297641D01*
X202966962Y-74078987D01*
X202781013Y-73893038D01*
X202562359Y-73746939D01*
X202319405Y-73646304D01*
X202061486Y-73595000D01*
X201798514Y-73595000D01*
X201540595Y-73646304D01*
X201297641Y-73746939D01*
X201078987Y-73893038D01*
X200893038Y-74078987D01*
X200746939Y-74297641D01*
X200646304Y-74540595D01*
X200595000Y-74798514D01*
X192962442Y-74798514D01*
X192960000Y-71290750D01*
X192801250Y-71132000D01*
X187052000Y-71132000D01*
X186798000Y-71132000D01*
X181048750Y-71132000D01*
X180890000Y-71290750D01*
X180886928Y-75705000D01*
X70510000Y-75705000D01*
X70510000Y-73050000D01*
X175227581Y-73050000D01*
X175260000Y-73053193D01*
X175292419Y-73050000D01*
X175389383Y-73040450D01*
X175513793Y-73002710D01*
X175628450Y-72941425D01*
X175728948Y-72858948D01*
X175811425Y-72758450D01*
X175872710Y-72643793D01*
X175910450Y-72519383D01*
X175923193Y-72390000D01*
X175920000Y-72357581D01*
X175920000Y-66305000D01*
X180886928Y-66305000D01*
X180890000Y-70719250D01*
X181048750Y-70878000D01*
X186798000Y-70878000D01*
X186798000Y-65828750D01*
X187052000Y-65828750D01*
X187052000Y-70878000D01*
X192801250Y-70878000D01*
X192896102Y-70783148D01*
X210066457Y-70783148D01*
X210342627Y-71201118D01*
X210887557Y-71491649D01*
X211478696Y-71670287D01*
X212093328Y-71730168D01*
X212707831Y-71668990D01*
X213298592Y-71489103D01*
X213837373Y-71201118D01*
X214113543Y-70783148D01*
X212090000Y-68759605D01*
X210066457Y-70783148D01*
X192896102Y-70783148D01*
X192960000Y-70719250D01*
X192962140Y-67643330D01*
X200637278Y-67643330D01*
X200727147Y-67889123D01*
X200863241Y-68112660D01*
X201040330Y-68305351D01*
X201251608Y-68459792D01*
X201488956Y-68570047D01*
X201596671Y-68602716D01*
X201803000Y-68479374D01*
X201803000Y-67437000D01*
X202057000Y-67437000D01*
X202057000Y-68479374D01*
X202263329Y-68602716D01*
X202327254Y-68583328D01*
X208939832Y-68583328D01*
X209001010Y-69197831D01*
X209180897Y-69788592D01*
X209468882Y-70327373D01*
X209886852Y-70603543D01*
X211910395Y-68580000D01*
X212269605Y-68580000D01*
X214293148Y-70603543D01*
X214711118Y-70327373D01*
X215001649Y-69782443D01*
X215180287Y-69191304D01*
X215240168Y-68576672D01*
X215178990Y-67962169D01*
X214999103Y-67371408D01*
X214711118Y-66832627D01*
X214293148Y-66556457D01*
X212269605Y-68580000D01*
X211910395Y-68580000D01*
X209886852Y-66556457D01*
X209468882Y-66832627D01*
X209178351Y-67377557D01*
X208999713Y-67968696D01*
X208939832Y-68583328D01*
X202327254Y-68583328D01*
X202371044Y-68570047D01*
X202608392Y-68459792D01*
X202819670Y-68305351D01*
X202996759Y-68112660D01*
X203132853Y-67889123D01*
X203222722Y-67643330D01*
X203100201Y-67437000D01*
X202057000Y-67437000D01*
X201803000Y-67437000D01*
X200759799Y-67437000D01*
X200637278Y-67643330D01*
X192962140Y-67643330D01*
X192962604Y-66976670D01*
X200637278Y-66976670D01*
X200759799Y-67183000D01*
X201803000Y-67183000D01*
X201803000Y-66140626D01*
X202057000Y-66140626D01*
X202057000Y-67183000D01*
X203100201Y-67183000D01*
X203222722Y-66976670D01*
X203132853Y-66730877D01*
X202996759Y-66507340D01*
X202876837Y-66376852D01*
X210066457Y-66376852D01*
X212090000Y-68400395D01*
X214113543Y-66376852D01*
X213837373Y-65958882D01*
X213292443Y-65668351D01*
X212701304Y-65489713D01*
X212086672Y-65429832D01*
X211472169Y-65491010D01*
X210881408Y-65670897D01*
X210342627Y-65958882D01*
X210066457Y-66376852D01*
X202876837Y-66376852D01*
X202819670Y-66314649D01*
X202608392Y-66160208D01*
X202371044Y-66049953D01*
X202263329Y-66017284D01*
X202057000Y-66140626D01*
X201803000Y-66140626D01*
X201596671Y-66017284D01*
X201488956Y-66049953D01*
X201251608Y-66160208D01*
X201040330Y-66314649D01*
X200863241Y-66507340D01*
X200727147Y-66730877D01*
X200637278Y-66976670D01*
X192962604Y-66976670D01*
X192963072Y-66305000D01*
X192950812Y-66180518D01*
X192914502Y-66060820D01*
X192855537Y-65950506D01*
X192776185Y-65853815D01*
X192679494Y-65774463D01*
X192569180Y-65715498D01*
X192449482Y-65679188D01*
X192325000Y-65666928D01*
X187210750Y-65670000D01*
X187052000Y-65828750D01*
X186798000Y-65828750D01*
X186639250Y-65670000D01*
X181525000Y-65666928D01*
X181400518Y-65679188D01*
X181280820Y-65715498D01*
X181170506Y-65774463D01*
X181073815Y-65853815D01*
X180994463Y-65950506D01*
X180935498Y-66060820D01*
X180899188Y-66180518D01*
X180886928Y-66305000D01*
X175920000Y-66305000D01*
X175920000Y-64160000D01*
X216510001Y-64160000D01*
X216510001Y-64737572D01*
G37*
%TD.AperFunction*%
%TD*%
M02*
