M48
; DRILL file {KiCad (5.1.10)-1} date 12/30/21 01:39:48
; FORMAT={-:-/ absolute / metric / decimal}
; #@! TF.CreationDate,2021-12-30T01:39:48+05:30
; #@! TF.GenerationSoftware,Kicad,Pcbnew,(5.1.10)-1
; #@! TF.FileFunction,Plated,1,2,PTH
FMAT,2
METRIC
T1C0.400
T2C0.600
T3C0.700
T4C0.800
T5C0.900
T6C1.000
T7C1.100
T8C1.300
T9C2.500
%
G90
G05
T1
X189.23Y-86.36
T2
X176.53Y-87.63
X176.53Y-89.13
T3
X151.13Y-91.44
X158.75Y-85.09
X158.75Y-91.44
X166.37Y-85.09
X201.93Y-67.31
X201.93Y-74.93
T4
X144.78Y-86.36
X144.78Y-91.36
X207.01Y-86.36
X209.55Y-83.82
X209.55Y-88.9
T5
X182.88Y-91.44
X190.5Y-91.44
T6
X128.27Y-85.09
X128.27Y-92.59
X128.27Y-105.41
X128.27Y-120.65
X130.81Y-105.41
X130.81Y-120.65
X133.35Y-105.41
X133.35Y-120.65
X135.89Y-105.41
X135.89Y-120.65
X138.43Y-105.41
X138.43Y-120.65
X140.97Y-105.41
X140.97Y-120.65
X174.11Y-114.3
X181.61Y-114.3
T7
X149.86Y-78.74
X152.4Y-78.74
X154.94Y-78.74
T8
X80.01Y-82.55
X80.01Y-87.55
X80.01Y-92.55
X91.44Y-118.11
X93.98Y-87.63
X96.44Y-118.11
X101.334Y-80.276
X101.334Y-94.984
X101.44Y-118.11
X108.688Y-87.63
X204.47Y-106.68
X204.47Y-121.29
T9
X74.93Y-121.92
X212.09Y-68.58
T0
M30
