%TF.GenerationSoftware,KiCad,Pcbnew,(5.1.10)-1*%
%TF.CreationDate,2021-12-30T01:37:01+05:30*%
%TF.ProjectId,New,4e65772e-6b69-4636-9164-5f7063625858,Final*%
%TF.SameCoordinates,Original*%
%TF.FileFunction,Copper,L2,Bot*%
%TF.FilePolarity,Positive*%
%FSLAX46Y46*%
G04 Gerber Fmt 4.6, Leading zero omitted, Abs format (unit mm)*
G04 Created by KiCad (PCBNEW (5.1.10)-1) date 2021-12-30 01:37:01*
%MOMM*%
%LPD*%
G01*
G04 APERTURE LIST*
%TA.AperFunction,ComponentPad*%
%ADD10C,1.440000*%
%TD*%
%TA.AperFunction,ComponentPad*%
%ADD11C,2.600000*%
%TD*%
%TA.AperFunction,ComponentPad*%
%ADD12R,2.600000X2.600000*%
%TD*%
%TA.AperFunction,ComponentPad*%
%ADD13C,5.000000*%
%TD*%
%TA.AperFunction,ComponentPad*%
%ADD14C,1.500000*%
%TD*%
%TA.AperFunction,ComponentPad*%
%ADD15R,1.500000X1.500000*%
%TD*%
%TA.AperFunction,ComponentPad*%
%ADD16C,2.000000*%
%TD*%
%TA.AperFunction,ComponentPad*%
%ADD17O,1.400000X1.400000*%
%TD*%
%TA.AperFunction,ComponentPad*%
%ADD18C,1.400000*%
%TD*%
%TA.AperFunction,ComponentPad*%
%ADD19C,1.200000*%
%TD*%
%TA.AperFunction,ComponentPad*%
%ADD20O,1.905000X2.000000*%
%TD*%
%TA.AperFunction,ComponentPad*%
%ADD21R,1.905000X2.000000*%
%TD*%
%TA.AperFunction,ComponentPad*%
%ADD22O,1.800000X1.800000*%
%TD*%
%TA.AperFunction,ComponentPad*%
%ADD23R,1.800000X1.800000*%
%TD*%
%TA.AperFunction,ComponentPad*%
%ADD24C,0.100000*%
%TD*%
%TA.AperFunction,ComponentPad*%
%ADD25C,1.600000*%
%TD*%
%TA.AperFunction,ViaPad*%
%ADD26C,0.800000*%
%TD*%
%TA.AperFunction,Conductor*%
%ADD27C,1.400000*%
%TD*%
G04 APERTURE END LIST*
D10*
%TO.P,RV1,3*%
%TO.N,Net-(R3-Pad1)*%
X209550000Y-83820000D03*
%TO.P,RV1,2*%
%TO.N,Net-(RV1-Pad2)*%
X207010000Y-86360000D03*
%TO.P,RV1,1*%
%TO.N,Net-(D2-Pad1)*%
X209550000Y-88900000D03*
%TD*%
D11*
%TO.P,J2,3*%
%TO.N,GND*%
X101440000Y-118110000D03*
%TO.P,J2,2*%
%TO.N,Net-(C4-Pad1)*%
X96440000Y-118110000D03*
D12*
%TO.P,J2,1*%
%TO.N,Net-(J2-Pad1)*%
X91440000Y-118110000D03*
%TD*%
D11*
%TO.P,J1,3*%
%TO.N,Net-(D1-Pad2)*%
X80010000Y-92550000D03*
%TO.P,J1,2*%
%TO.N,Net-(J1-Pad2)*%
X80010000Y-87550000D03*
D12*
%TO.P,J1,1*%
%TO.N,Net-(D1-Pad4)*%
X80010000Y-82550000D03*
%TD*%
D13*
%TO.P,H2,1*%
%TO.N,Net-(C4-Pad1)*%
X74930000Y-121920000D03*
%TD*%
%TO.P,H1,1*%
%TO.N,GND*%
X212090000Y-68580000D03*
%TD*%
D14*
%TO.P,MES1,12*%
%TO.N,N/C*%
X128270000Y-105410000D03*
%TO.P,MES1,11*%
X130810000Y-105410000D03*
%TO.P,MES1,10*%
X133350000Y-105410000D03*
%TO.P,MES1,9*%
X135890000Y-105410000D03*
%TO.P,MES1,8*%
X138430000Y-105410000D03*
%TO.P,MES1,7*%
X140970000Y-105410000D03*
%TO.P,MES1,6*%
X140970000Y-120650000D03*
%TO.P,MES1,5*%
X138430000Y-120650000D03*
%TO.P,MES1,4*%
X135890000Y-120650000D03*
%TO.P,MES1,3*%
X133350000Y-120650000D03*
%TO.P,MES1,2*%
%TO.N,Net-(C4-Pad1)*%
X130810000Y-120650000D03*
D15*
%TO.P,MES1,1*%
%TO.N,GND*%
X128270000Y-120650000D03*
%TD*%
D16*
%TO.P,C4,2*%
%TO.N,GND*%
X174110000Y-114300000D03*
%TO.P,C4,1*%
%TO.N,Net-(C4-Pad1)*%
X181610000Y-114300000D03*
%TD*%
D17*
%TO.P,R3,2*%
%TO.N,GND*%
X201930000Y-67310000D03*
D18*
%TO.P,R3,1*%
%TO.N,Net-(R3-Pad1)*%
X201930000Y-74930000D03*
%TD*%
D19*
%TO.P,C3,2*%
%TO.N,GND*%
X176530000Y-89130000D03*
%TO.P,C3,1*%
%TO.N,Net-(C3-Pad1)*%
X176530000Y-87630000D03*
%TD*%
D17*
%TO.P,R1,2*%
%TO.N,Net-(R1-Pad2)*%
X158750000Y-85090000D03*
D18*
%TO.P,R1,1*%
%TO.N,Net-(C3-Pad1)*%
X166370000Y-85090000D03*
%TD*%
D20*
%TO.P,U1,3*%
%TO.N,Net-(C1-Pad1)*%
X154940000Y-78740000D03*
%TO.P,U1,2*%
%TO.N,Net-(C3-Pad1)*%
X152400000Y-78740000D03*
D21*
%TO.P,U1,1*%
%TO.N,Net-(R1-Pad2)*%
X149860000Y-78740000D03*
%TD*%
D17*
%TO.P,R2,2*%
%TO.N,GND*%
X151130000Y-91440000D03*
D18*
%TO.P,R2,1*%
%TO.N,Net-(R1-Pad2)*%
X158750000Y-91440000D03*
%TD*%
D11*
%TO.P,L1,2*%
%TO.N,Net-(C4-Pad1)*%
X204470000Y-121290000D03*
%TO.P,L1,1*%
%TO.N,Net-(D2-Pad1)*%
X204470000Y-106680000D03*
%TD*%
D22*
%TO.P,D2,2*%
%TO.N,GND*%
X182880000Y-91440000D03*
D23*
%TO.P,D2,1*%
%TO.N,Net-(D2-Pad1)*%
X190500000Y-91440000D03*
%TD*%
D11*
%TO.P,D1,2*%
%TO.N,Net-(D1-Pad2)*%
X101333911Y-94983911D03*
%TA.AperFunction,ComponentPad*%
D24*
%TO.P,D1,1*%
%TO.N,GND*%
G36*
X93980000Y-89468478D02*
G01*
X92141522Y-87630000D01*
X93980000Y-85791522D01*
X95818478Y-87630000D01*
X93980000Y-89468478D01*
G37*
%TD.AperFunction*%
D11*
%TO.P,D1,4*%
%TO.N,Net-(D1-Pad4)*%
X101333911Y-80276089D03*
%TO.P,D1,3*%
%TO.N,Net-(C1-Pad1)*%
X108687821Y-87630000D03*
%TD*%
D25*
%TO.P,C2,2*%
%TO.N,GND*%
X144780000Y-91360000D03*
%TO.P,C2,1*%
%TO.N,Net-(C1-Pad1)*%
X144780000Y-86360000D03*
%TD*%
D16*
%TO.P,C1,2*%
%TO.N,GND*%
X128270000Y-92590000D03*
%TO.P,C1,1*%
%TO.N,Net-(C1-Pad1)*%
X128270000Y-85090000D03*
%TD*%
D26*
%TO.N,GND*%
X189230000Y-86360000D03*
%TD*%
D27*
%TO.N,GND*%
X189230000Y-86360000D02*
X184150000Y-91440000D01*
X184150000Y-91440000D02*
X182880000Y-91440000D01*
%TO.N,Net-(C1-Pad1)*%
X154940000Y-81140000D02*
X154940000Y-78740000D01*
X149720000Y-86360000D02*
X154940000Y-81140000D01*
X144780000Y-86360000D02*
X149720000Y-86360000D01*
%TD*%
M02*
